<?xml version="1.0" standalone="no"?>
<!DOCTYPE svg PUBLIC "-//W3C//DTD SVG 1.1//EN" "http://www.w3.org/Graphics/SVG/1.1/DTD/svg11.dtd" >
<svg xmlns="http://www.w3.org/2000/svg">
<metadata>Generated by IcoMoon</metadata>
<defs>
<font id="icomoon" horiz-adv-x="1024">
<font-face units-per-em="1024" ascent="960" descent="-64" />
<missing-glyph horiz-adv-x="1024" />
<glyph unicode="&#x20;" d="" horiz-adv-x="512" />
<glyph unicode="&#xe600;" d="M662.187 385.706c0-54.613 44.373-102.4 102.4-102.4 54.613 0 102.4 44.373 102.4 102.4s-44.373 102.4-102.4 102.4c-58.027-3.413-102.4-47.787-102.4-102.4zM290.133 276.48c-78.507 105.813-133.12 238.933-157.013 392.533l283.307 112.64 283.307-112.64c-23.893-160.427-81.92-300.373-167.253-409.6 20.48-10.24 34.133-23.893 47.787-37.547 10.24 17.067 27.307 27.307 44.373 37.547 13.653 17.067 23.893 37.547 34.133 54.613-10.24 20.48-20.48 40.96-20.48 68.267 0 61.44 40.96 112.64 98.987 122.88 17.067 58.027 30.72 116.053 37.547 180.907l3.413 27.307-365.227 146.773-361.813-143.36 3.413-27.307c23.893-174.080 81.92-324.267 170.667-447.147 17.067 13.653 40.96 27.307 64.853 34.133zM290.133 385.706c0-54.613 44.373-102.4 102.4-102.4s102.4 44.373 102.4 102.4-44.373 102.4-102.4 102.4-102.4-47.787-102.4-102.4zM945.493 167.253c-3.413 54.613-64.853 88.747-139.947 98.987-13.653 0-27.307 3.413-40.96 3.413s-27.307 0-40.96-3.413c-75.093-10.24-143.36-44.373-157.013-98.987 0 6.827-3.413 10.24-3.413 17.067-6.827 23.893-27.307 40.96-51.2 54.613s-51.2 20.48-81.92 27.307c-13.653 3.413-30.72 3.413-44.373 3.413s-27.307 0-37.547-3.413c-13.653 0-27.307-3.413-40.96-6.827-27.307-6.827-51.2-17.067-68.267-30.72-20.48-13.653-30.72-34.133-34.133-58.027 0 0-3.413-23.893 0-85.333 61.44-20.48 126.293-30.72 187.733-30.72 64.853 0 126.293 10.24 187.733 30.72 61.44-20.48 126.293-30.72 187.733-30.72s126.293 10.24 187.733 30.72l-10.24 81.92z" />
<glyph unicode="&#xe601;" d="M133.12 385.706h95.573v314.027h-95.573v-314.027zM133.12 64.853h95.573v310.613h-95.573v-310.613zM440.32 839.68h-95.573v-314.027h95.573v314.027zM436.907 290.133h3.413v228.693h-95.573v-228.693h92.16zM566.613 385.706h95.573v314.027h-95.573v-314.027zM566.613 64.853h95.573v310.613h-95.573v-310.613zM781.653 385.706h95.573v314.027h-95.573v-314.027zM781.653 64.853h95.573v310.613h-95.573v-310.613zM433.493 177.493v88.747h-81.92v-88.747c0-10.24-6.827-17.067-17.067-17.067h-30.72l88.747-109.227 88.747 109.227h-30.72c-10.24-3.413-17.067 6.827-17.067 17.067zM928.427 907.946h-832.853c-27.307 0-51.2-23.893-51.2-51.2v-815.787c0-27.307 23.893-51.2 51.2-51.2h832.853c27.307 0 51.2 23.893 51.2 51.2v815.787c0 30.72-23.893 51.2-51.2 51.2zM945.493 40.96c0-10.24-6.827-17.067-17.067-17.067h-832.853c-10.24 0-17.067 6.827-17.067 17.067v815.787c0 10.24 6.827 17.067 17.067 17.067h832.853c10.24 0 17.067-6.827 17.067-17.067v-815.787z" />
<glyph unicode="&#xe602;" d="M440.32 730.453c44.373 0 78.507 37.547 78.507 78.507 0 44.373-37.547 78.507-78.507 78.507s-78.507-37.547-78.507-78.507c0-44.373 34.133-78.507 78.507-78.507zM757.76 583.68v-71.68c-3.413 10.24-13.653 20.48-40.96 23.893l-102.4 3.413c-20.48 40.96-27.307 109.227-78.507 136.533-71.68 37.547-126.293 23.893-133.12 23.893-64.853-3.413-95.573-75.093-95.573-133.12l10.24-235.52c0-13.653 10.24-20.48 27.307-20.48h13.653v-293.547c0-13.653 3.413-23.893 10.24-23.893h71.68c3.413 0 10.24 10.24 10.24 23.893l13.653 238.933 3.413-238.933c0-13.653 3.413-23.893 10.24-23.893h75.093c3.413 0 10.24 10.24 10.24 23.893l3.413 170.667 3.413 133.12h10.24v146.773l136.533-3.413c27.307 0 37.547 6.827 40.96 17.067v-71.68h102.4v174.080h-102.4z" />
<glyph unicode="&#xe603;" d="M484.693 464.213c116.053 0 208.213 92.16 208.213 208.213s-92.16 208.213-208.213 208.213c-116.053 0-208.213-92.16-208.213-208.213s92.16-208.213 208.213-208.213zM815.787 334.506c-27.307 51.2-71.68 92.16-116.053 95.573h-402.773c-78.507 0-143.36-105.813-143.36-197.973v-221.867h174.080c-3.413 3.413-3.413 6.827-3.413 13.653v283.307c0 10.24 6.827 17.067 13.653 23.893l3.413 3.413h474.453zM853.333 310.613l-20.48-17.067-157.013-129.707 150.187-119.467c3.413-3.413 6.827-6.827 6.827-13.653 0-3.413 0-10.24-3.413-13.653-6.827-6.827-17.067-10.24-27.307-3.413l-157.013 122.88-17.067-13.653c-17.067-13.653-47.787-13.653-64.853 0l-17.067 13.653-157.013-122.88c-6.827-6.827-20.48-3.413-27.307 3.413-3.413 3.413-3.413 10.24-3.413 13.653s3.413 10.24 6.827 13.653l150.187 119.467-177.493 146.773v-293.547c0-3.413 3.413-6.827 6.827-6.827h498.347c3.413 0 6.827 3.413 6.827 6.827v290.133l3.413 3.413zM607.573 157.013l194.56 157.013h-406.187l194.56-157.013c3.413-3.413 10.24-3.413 17.067 0z" />
<glyph unicode="&#xe604;" d="M518.827 887.466c-242.347 0-436.907-194.56-436.907-436.907s194.56-436.907 436.907-436.907c242.347 0 436.907 194.56 436.907 436.907 0 238.933-197.973 436.907-436.907 436.907zM808.96 361.813h-580.267c-20.48 0-34.133 13.653-34.133 34.133v109.227c0 17.067 13.653 34.133 34.133 34.133h580.267c17.067 0 34.133-17.067 34.133-34.133v-109.227c0-20.48-17.067-34.133-34.133-34.133z" />
<glyph unicode="&#xe605;" d="M648.533 34.133v102.4h-105.813c-23.893 0-44.373 23.893-44.373 51.2v58.027c0 27.307 20.48 51.2 44.373 51.2h105.813v105.813c0 23.893 23.893 44.373 51.2 44.373h58.027c13.653 0 27.307-6.827 37.547-13.653v443.733h-559.787v-880.64h440.32c-17.067 6.827-27.307 20.48-27.307 37.547zM314.027 788.48h399.36v-276.48h-399.36v276.48zM348.16 399.36c-17.067 0-34.133 13.653-34.133 34.133s13.653 34.133 34.133 34.133 34.133-13.653 34.133-34.133-17.067-34.133-34.133-34.133zM911.36 259.413h-139.947v139.947c0 6.827-10.24 10.24-17.067 10.24h-58.027c-6.827 0-17.067-3.413-17.067-10.24v-139.947h-139.947c-6.827 0-10.24-10.24-10.24-17.067v-58.027c0-6.827 3.413-17.067 10.24-17.067h139.947v-136.533c0-6.827 10.24-10.24 17.067-10.24h58.027c6.827 0 17.067 3.413 17.067 10.24v139.947h139.947c6.827 0 10.24 10.24 10.24 17.067v58.027c3.413 10.24 0 13.653-10.24 13.653z" />
<glyph unicode="&#xe606;" d="M402.773 464.213c112.64 0 204.8 92.16 204.8 204.8s-92.16 204.8-204.8 204.8-204.8-92.16-204.8-204.8 88.747-204.8 204.8-204.8zM426.667 191.146v58.027c0 37.547 27.307 68.267 61.44 68.267h249.173c-23.893 61.44-75.093 112.64-122.88 112.64h-399.36c-78.507 0-139.947-105.813-139.947-194.56v-218.453h682.667v105.813l-266.24 3.413c-37.547-3.413-64.853 27.307-64.853 64.853zM884.053 269.653c-3.413 6.827-13.653 10.24-23.893 10.24h-372.053c-3.413 0-6.827 0-6.827-3.413-3.413-3.413-10.24-3.413-13.653-10.24-3.413-3.413-3.413-6.827-6.827-10.24s-3.413-6.827-3.413-13.653v-58.027c0-6.827 3.413-17.067 6.827-23.893 3.413-3.413 6.827-6.827 10.24-6.827 3.413-3.413 6.827-3.413 10.24-3.413l266.24-3.413h116.053c3.413 0 10.24 3.413 10.24 6.827s3.413 3.413 3.413 6.827 3.413 10.24 3.413 13.653v71.68c6.827 13.653 3.413 20.48 0 23.893z" />
<glyph unicode="&#xe607;" d="M942.080 320.853c0 40.96-34.133 64.853-61.44 68.267-51.2 6.827-102.4 3.413-102.4 3.413l-6.827 75.093 10.24-68.267 133.12-13.653c34.133-3.413 37.547 34.133 0 40.96-44.373 6.827-64.853 10.24-95.573 20.48-3.413 40.96-27.307 109.227-40.96 126.293s-27.307 27.307-61.44 27.307c-40.96 0-61.44-13.653-61.44-30.72 0 0-10.24-167.253-3.413-232.107l-54.613 242.347c-3.413 17.067-20.48 27.307-37.547 23.893s-27.307-20.48-23.893-37.547l61.44-283.307c0-6.827 6.827-13.653 10.24-17.067l-27.307-194.56c0-10.24 3.413-17.067 13.653-17.067h3.413c6.827 0 13.653 6.827 17.067 13.653l10.24 81.92h208.213v-81.92c0-10.24 6.827-17.067 17.067-17.067s17.067 6.827 17.067 17.067v194.56c10.24 6.827 17.067 13.653 17.067 27.307-3.413-40.96 3.413-61.44 3.413-112.64 3.413-54.613 61.44-51.2 61.44-10.24 3.413 23.893 3.413-34.133-6.827 153.6zM839.68 177.493h-204.8l10.24 78.507h194.56v-78.507zM723.627 624.64c37.547 0 68.267 30.72 68.267 68.267s-30.72 68.267-68.267 68.267-68.267-30.72-68.267-68.267 30.72-68.267 68.267-68.267zM242.347 624.64c37.547 0 68.267 30.72 68.267 68.267s-30.72 68.267-68.267 68.267-68.267-30.72-68.267-68.267c3.413-37.547 30.72-68.267 68.267-68.267zM399.36 389.12c-51.2 6.827-102.4 3.413-102.4 3.413l-6.827 75.093 10.24-68.267 133.12-13.653c34.133-3.413 37.547 34.133 0 40.96-44.373 6.827-64.853 10.24-95.573 20.48-3.413 40.96-27.307 109.227-40.96 126.293s-27.307 27.307-61.44 27.307c-40.96 0-61.44-13.653-61.44-30.72 0 0-10.24-167.253-3.413-232.107l-54.613 242.347c-3.413 17.067-20.48 27.307-37.547 23.893s-27.307-20.48-23.893-37.547l61.44-283.307c0-6.827 6.827-13.653 10.24-17.067l-27.307-194.56c0-10.24 3.413-17.067 13.653-17.067h3.413c6.827 0 13.653 6.827 17.067 13.653l10.24 81.92h208.213v-81.92c0-10.24 6.827-17.067 17.067-17.067s17.067 6.827 17.067 17.067v194.56c10.24 6.827 17.067 13.653 17.067 27.307-3.413-40.96 3.413-61.44 3.413-112.64 3.413-54.613 61.44-51.2 61.44-10.24 0 27.307 0-30.72-6.827 157.013 0 37.547-30.72 61.44-61.44 64.853zM358.4 177.493h-204.8l10.24 78.507h194.56v-78.507z" />
<glyph unicode="&#xe608;" d="M471.040 464.213c112.64 0 204.8 92.16 204.8 204.8s-92.16 204.8-204.8 204.8-204.8-92.16-204.8-204.8 88.747-204.8 204.8-204.8zM648.533 122.88h-88.747c-34.133 0-61.44 30.72-61.44 68.267v58.027c0 37.547 27.307 68.267 61.44 68.267h88.747v88.747c0 10.24 3.413 17.067 6.827 23.893h-368.64c-78.507 0-139.947-105.813-139.947-194.56v-218.453h508.587c-3.413 6.827-6.827 17.067-6.827 23.893v81.92zM955.733 262.826c0 3.413-3.413 3.413-3.413 6.827-3.413 3.413-6.827 6.827-10.24 6.827s-6.827 3.413-13.653 3.413h-122.88v122.88c0 17.067-17.067 27.307-34.133 27.307h-54.613c-6.827 0-13.653-3.413-20.48-6.827s-13.653-13.653-13.653-23.893v-122.88h-122.88c-3.413 0-6.827 0-10.24-3.413s-6.827-3.413-10.24-6.827c-3.413-3.413-3.413-6.827-6.827-10.24s-3.413-6.827-3.413-13.653v-58.027c0-6.827 3.413-17.067 6.827-23.893s13.653-10.24 20.48-10.24h122.88v-119.467c0-10.24 6.827-20.48 17.067-23.893 3.413-3.413 10.24-3.413 17.067-3.413h58.027c6.827 0 10.24 0 17.067 3.413 10.24 3.413 17.067 13.653 17.067 23.893v122.88h122.88c17.067 0 27.307 17.067 27.307 34.133v58.027c3.413 10.24 0 13.653 0 17.067z" />
<glyph unicode="&#xe609;" d="M512 706.56c51.2 0 92.16 40.96 92.16 92.16s-40.96 92.16-92.16 92.16c-51.2 0-92.16-40.96-92.16-92.16-3.413-51.2 40.96-92.16 92.16-92.16zM512 873.813c40.96 0 75.093-34.133 75.093-75.093s-34.133-75.093-75.093-75.093c-40.96 0-75.093 34.133-75.093 75.093-3.413 40.96 30.72 75.093 75.093 75.093zM805.547 150.186c0 3.413-3.413 17.067-10.24 184.32 0 30.72-17.067 58.027-37.547 71.68 23.893 0 34.133 13.653 37.547 27.307 0 17.067-10.24 34.133-40.96 40.96-17.067 3.413-30.72 6.827-44.373 6.827-27.307 3.413-44.373 6.827-68.267 13.653-6.827 51.2-37.547 133.12-51.2 157.013-17.067 23.893-37.547 37.547-85.333 37.547-64.853 0-85.333-23.893-85.333-47.787-3.413-44.373-10.24-160.427-6.827-238.933l-58.027 256c-3.413 20.48-27.307 34.133-47.787 30.72s-34.133-27.307-30.72-47.787l78.507-358.4c3.413-10.24 6.827-17.067 13.653-23.893l-34.133-245.76c0-10.24 6.827-20.48 17.067-23.893h3.413c10.24 0 17.067 6.827 20.48 17.067l13.653 102.4h262.827v-98.987c0-10.24 10.24-20.48 20.48-20.48s20.48 10.24 20.48 20.48v245.76l10.24 10.24c0-23.893 0-44.373 3.413-68.267 0-13.653 3.413-30.72 3.413-47.787 3.413-40.96 27.307-61.44 51.2-61.44 20.48 0 44.373 17.067 44.373 44.373v17.067zM655.36 153.6h-259.413l13.653 98.987h242.347v-98.987zM788.48 136.533c0-20.48-13.653-27.307-27.307-27.307s-30.72 10.24-34.133 44.373c0 20.48-3.413 34.133-3.413 47.787-3.413 34.133-3.413 58.027-3.413 92.16 0 10.24-3.413 17.067-6.827 23.893-6.827 6.827-13.653 10.24-23.893 10.24h-40.96c-23.893 0-191.147 3.413-215.040 3.413v3.413c-10.24 27.307-10.24 174.080 0 310.613 0 20.48 27.307 30.72 68.267 30.72s54.613-10.24 71.68-30.72c13.653-20.48 44.373-105.813 51.2-153.6v-6.827h6.827c27.307-6.827 47.787-10.24 75.093-17.067 13.653-3.413 27.307-3.413 44.373-6.827s27.307-13.653 23.893-20.48c0-10.24-10.24-13.653-23.893-13.653l-160.427 17.067-13.653 81.92-17.067-3.413 6.827-102.4h6.827s61.44 3.413 126.293-6.827c34.133-3.413 71.68-30.72 71.68-75.093 6.827-167.253 10.24-180.907 10.24-187.733 6.827-6.827 6.827-6.827 6.827-13.653z" />
<glyph unicode="&#xe60a;" d="M406.187 669.013c0 68.267 54.613 119.467 119.467 119.467s119.467-54.613 119.467-119.467-54.613-119.467-119.467-119.467-119.467 54.613-119.467 119.467zM750.933 884.053c-27.307 0-51.2-17.067-51.2-40.96v-344.747h-303.787c-95.573 0-174.080-68.267-174.080-150.187v-334.507h98.987v317.44h40.96v-317.44h300.373v314.027l30.72 6.827c68.267 13.653 105.813 64.853 105.813 143.36v361.813c3.413 20.48-17.067 44.373-47.787 44.373z" />
<glyph unicode="&#xe60b;" d="M733.867 256l-10.24-10.24c-58.027-58.027-136.533-92.16-218.453-92.16s-160.427 30.72-218.453 92.16c-27.307 27.307-51.2 61.44-68.267 98.987h47.787l-109.227 225.28-109.227-225.28h64.853c20.48-64.853 54.613-122.88 102.4-170.667 78.507-78.507 177.493-119.467 286.72-119.467s211.627 40.96 286.72 119.467c20.48 20.48 37.547 40.96 54.613 68.267l10.24 13.653h-119.467zM907.947 535.893c-13.653 85.333-54.613 160.427-112.64 218.453-78.507 78.507-177.493 119.467-286.72 119.467s-211.627-40.96-286.72-119.467c-27.307-27.307-51.2-58.027-68.267-92.16l-10.24-13.653h112.64l3.413 3.413c10.24 10.24 17.067 23.893 27.307 34.133 58.027 58.027 136.533 92.16 218.453 92.16s160.427-30.72 218.453-92.16c40.96-40.96 71.68-92.16 81.92-150.187h-54.613l112.64-225.28 112.64 225.28h-68.267zM624.64 689.493h-232.107v-436.907h232.107v436.907zM430.080 443.733c-6.827 0-10.24 6.827-10.24 10.24s6.827 10.24 10.24 10.24 10.24-6.827 10.24-10.24-3.413-10.24-10.24-10.24zM593.92 542.72h-177.493v122.88h177.493v-122.88z" />
<glyph unicode="&#xe60c;" d="M737.28 256l-10.24-10.24c-58.027-58.027-136.533-92.16-218.453-92.16s-160.427 30.72-218.453 92.16c-27.307 27.307-51.2 61.44-68.267 98.987h47.787l-109.227 225.28-109.227-225.28h64.853c20.48-64.853 54.613-122.88 102.4-170.667 78.507-78.507 177.493-119.467 286.72-119.467s211.627 40.96 286.72 119.467c20.48 20.48 37.547 44.373 54.613 68.267l10.24 13.653h-119.467zM907.947 535.893c-13.653 85.333-54.613 160.427-112.64 218.453-78.507 78.507-177.493 119.467-286.72 119.467s-211.627-40.96-286.72-119.467c-27.307-27.307-51.2-58.027-68.267-92.16l-6.827-13.653h112.64l3.413 3.413c10.24 10.24 17.067 23.893 27.307 34.133 58.027 58.027 136.533 92.16 218.453 92.16s160.427-30.72 218.453-92.16c40.96-40.96 71.68-92.16 81.92-150.187h-58.027l112.64-225.28 112.64 225.28h-68.267zM413.013 641.706c0 20.48-17.067 34.133-34.133 34.133s-34.133-17.067-34.133-34.133c-3.413-17.067 13.653-34.133 34.133-34.133s34.133 17.067 34.133 34.133zM293.547 556.373v-98.987c0-6.827 6.827-13.653 17.067-13.653s17.067 6.827 17.067 13.653v92.16h6.827v-249.173c0-10.24 10.24-17.067 20.48-17.067s20.48 6.827 20.48 17.067v143.36h10.24v-146.773c0-10.24 10.24-17.067 20.48-17.067s20.48 6.827 20.48 17.067v249.173h6.827v-92.16c0-6.827 6.827-13.653 17.067-13.653s17.067 6.827 17.067 13.653v98.987c-3.413 23.893-27.307 40.96-54.613 40.96h-68.267c-27.307 3.413-51.2-13.653-51.2-37.547zM529.067 515.413l-40.96 30.72v-13.653h-17.067v-34.133h17.067v-17.067l40.96 34.133zM529.067 556.373v-98.987c0-10.24 10.24-17.067 20.48-17.067s17.067 6.827 20.48 13.653v-153.6c0-10.24 10.24-20.48 23.893-20.48s23.893 10.24 23.893 20.48v139.947h3.413v-139.947c0-10.24 10.24-20.48 23.893-20.48s23.893 10.24 23.893 20.48v153.6c3.413-6.827 10.24-13.653 20.48-13.653s20.48 6.827 20.48 17.067v98.987c-3.413 27.307-27.307 44.373-58.027 44.373h-68.267c-30.72 0-54.613-20.48-54.613-44.373zM583.68 593.92h68.267c23.893 0 44.373-17.067 47.787-37.547v-98.987c0-3.413-6.827-10.24-13.653-10.24s-13.653 3.413-13.653 10.24v95.573h-13.653v-252.587c0-6.827-6.827-13.653-17.067-13.653s-17.067 6.827-17.067 13.653v150.187h-17.067v-150.187c0-6.827-6.827-13.653-17.067-13.653s-17.067 6.827-17.067 13.653v252.587h-13.653v-95.573c0-3.413-6.827-10.24-13.653-10.24s-13.653 3.413-13.653 10.24v98.987c3.413 20.48 23.893 37.547 51.2 37.547zM617.813 604.16c20.48 0 37.547 17.067 37.547 37.547s-17.067 37.547-37.547 37.547c-20.48 0-37.547-17.067-37.547-37.547s17.067-37.547 37.547-37.547zM617.813 672.426c17.067 0 30.72-13.653 30.72-30.72s-13.653-30.72-30.72-30.72-30.72 13.653-30.72 30.72 13.653 30.72 30.72 30.72z" />
<glyph unicode="&#xe60d;" d="M276.48 481.28c13.653 6.827 20.48 17.067 27.307 23.893s10.24 20.48 10.24 37.547c0 13.653-3.413 23.893-6.827 30.72s-13.653 17.067-23.893 20.48l-30.72 10.24s-27.307 3.413-47.787 3.413h-88.747v-296.96h105.813c20.48 0 37.547 3.413 51.2 6.827s27.307 10.24 37.547 20.48c10.24 6.827 17.067 17.067 23.893 27.307s6.827 23.893 6.827 37.547c0 20.48-6.827 37.547-17.067 51.2s-27.307 23.893-47.787 27.307zM157.013 576.853h81.92s17.067-3.413 23.893-6.827c6.827-3.413 10.24-6.827 10.24-13.653s3.413-10.24 3.413-17.067c0-10.24 0-17.067-3.413-23.893s-6.827-10.24-13.653-17.067-13.653-6.827-20.48-6.827-17.067-3.413-30.72-3.413h-51.2v88.747zM293.547 375.466c-3.413-6.827-10.24-13.653-17.067-17.067s-17.067-6.827-27.307-10.24-23.893-3.413-40.96-3.413h-51.2v109.227h95.573s17.067-3.413 23.893-6.827c10.24-3.413 17.067-10.24 20.48-17.067s6.827-17.067 6.827-27.307c-3.413-10.24-6.827-20.48-10.24-27.307zM525.653 614.4c-20.48 0-40.96-3.413-58.027-10.24s-34.133-17.067-44.373-30.72c-13.653-13.653-23.893-30.72-30.72-47.787s-10.24-40.96-10.24-64.853c0-27.307 3.413-47.787 10.24-68.267s17.067-34.133 30.72-47.787c13.653-13.653 27.307-23.893 47.787-27.307 17.067-6.827 37.547-10.24 58.027-10.24 10.24 0 20.48 0 30.72 3.413s17.067 3.413 27.307 6.827c10.24 3.413 17.067 6.827 23.893 10.24l20.48 10.24v47.787h-3.413c-13.653-13.653-30.72-23.893-47.787-30.72s-34.133-10.24-54.613-10.24c-13.653 0-27.307 3.413-40.96 6.827s-23.893 13.653-34.133 20.48c-10.24 10.24-17.067 20.48-20.48 37.547-6.827 13.653-6.827 34.133-6.827 54.613s3.413 37.547 6.827 51.2 13.653 27.307 20.48 37.547c10.24 10.24 20.48 17.067 30.72 23.893s27.307 6.827 40.96 6.827c17.067 0 34.133-3.413 51.2-10.24s30.72-17.067 47.787-30.72h3.413v47.787c-20.48 10.24-37.547 17.067-54.613 20.48s-27.307 3.413-44.373 3.413zM737.28 549.546c10.24 10.24 20.48 17.067 30.72 23.893s27.307 6.827 40.96 6.827c17.067 0 34.133-3.413 51.2-10.24s30.72-17.067 47.787-30.72h3.413v47.787c-20.48 10.24-37.547 17.067-54.613 20.48s-30.72 6.827-47.787 6.827c-20.48 0-40.96-3.413-58.027-10.24s-34.133-17.067-44.373-30.72c-13.653-13.653-23.893-30.72-30.72-47.787s-10.24-40.96-10.24-64.853c0-27.307 3.413-47.787 10.24-68.267s17.067-34.133 30.72-47.787c13.653-13.653 27.307-23.893 47.787-27.307 17.067-6.827 37.547-10.24 58.027-10.24 10.24 0 20.48 0 30.72 3.413s17.067 3.413 27.307 6.827c10.24 3.413 17.067 6.827 23.893 10.24l20.48 10.24v47.787h-3.413c-13.653-13.653-30.72-23.893-47.787-30.72s-34.133-10.24-54.613-10.24c-13.653 0-27.307 3.413-40.96 6.827s-23.893 13.653-34.133 20.48c-10.24 10.24-17.067 20.48-20.48 37.547-6.827 13.653-6.827 34.133-6.827 54.613s3.413 37.547 6.827 51.2 13.653 27.307 23.893 34.133z" />
<glyph unicode="&#xe60e;" d="M802.133 887.466h-604.16c-27.307 0-47.787-20.48-47.787-47.787v-785.067c0-27.307 20.48-47.787 47.787-47.787h604.16c27.307 0 47.787 20.48 47.787 47.787v785.067c0 27.307-20.48 47.787-47.787 47.787zM314.027 64.853h-102.4v64.853h102.4v-64.853zM314.027 187.733h-102.4v64.853h102.4v-64.853zM314.027 310.613h-102.4v64.853h102.4v-64.853zM314.027 474.453h-102.4v64.853h102.4v-64.853zM464.213 64.853h-102.4v64.853h102.4v-64.853zM464.213 187.733h-102.4v64.853h102.4v-64.853zM464.213 310.613h-102.4v64.853h102.4v-64.853zM464.213 474.453h-102.4v64.853h102.4v-64.853zM610.987 64.853h-102.4v64.853h102.4v-64.853zM610.987 187.733h-102.4v64.853h102.4v-64.853zM610.987 310.613h-102.4v64.853h102.4v-64.853zM610.987 474.453h-102.4v64.853h102.4v-64.853zM785.067 64.853h-102.4v187.733h102.4v-187.733zM785.067 310.613h-102.4v64.853h102.4v-64.853zM785.067 474.453h-102.4v64.853h102.4v-64.853zM785.067 631.466h-570.027v187.733h570.027v-187.733zM679.253 730.453c3.413 0 3.413 0 0 0l10.24 6.827v34.133l-6.827 6.827h-3.413l-3.413-3.413v-40.96l3.413-3.413zM737.28 771.413v-34.133l6.827-6.827 3.413 3.413v44.373l-3.413 3.413-6.827-10.24c0 3.413 0 3.413 0 0zM696.32 778.24h34.133l6.827 6.827-3.413 3.413h-40.96l-3.413-3.413v-3.413l6.827-3.413zM730.453 672.426h-34.133l-6.827-6.827v-3.413l3.413-3.413h40.96l3.413 3.413-6.827 10.24zM747.52 720.213c0 3.413 0 3.413 0 0-3.413 3.413-3.413 3.413 0 0l-10.24-6.827v-34.133l6.827-6.827 3.413 3.413v44.373zM679.253 669.013c3.413 0 3.413 0 0 0l10.24 6.827v34.133l-6.827 6.827h-3.413l-3.413-3.413v-40.96l3.413-3.413zM730.453 716.8s0 3.413 0 0l6.827 6.827v3.413l-6.827 6.827h-34.133l-6.827-6.827v-3.413l6.827-6.827h34.133zM583.68 730.453s3.413 0 0 0l10.24 6.827v34.133l-6.827 6.827h-3.413l-3.413-3.413v-40.96l3.413-3.413zM638.293 771.413v-34.133l6.827-6.827 3.413 3.413v44.373l-3.413 3.413-6.827-10.24c0 3.413 0 3.413 0 0zM600.747 778.24h34.133l6.827 6.827-3.413 3.413h-40.96l-3.413-3.413v-3.413l6.827-3.413zM634.88 672.426h-34.133l-6.827-6.827v-3.413l3.413-3.413h40.96l3.413 3.413-6.827 10.24zM651.947 720.213c-3.413 3.413-3.413 3.413 0 0-3.413 3.413-3.413 3.413 0 0l-10.24-6.827v-34.133l6.827-6.827 3.413 3.413v44.373zM583.68 669.013s3.413 0 0 0l10.24 6.827v34.133l-6.827 6.827h-6.827v-40.96l3.413-6.827zM631.467 716.8c3.413 0 3.413 3.413 0 0l6.827 6.827v3.413l-6.827 6.827h-34.133l-6.827-6.827v-3.413l6.827-6.827h34.133zM484.693 730.453s3.413 0 0 0c3.413 0 3.413 0 0 0l10.24 6.827v34.133l-6.827 6.827h-3.413l-3.413-3.413v-40.96l3.413-3.413zM542.72 771.413v-34.133l6.827-6.827 3.413 3.413v44.373l-3.413 3.413-6.827-10.24c0 3.413 0 3.413 0 0zM501.76 778.24h34.133l6.827 6.827-3.413 3.413h-40.96l-3.413-3.413v-3.413l6.827-3.413zM535.893 672.426h-34.133l-6.827-6.827v-3.413l3.413-3.413h40.96l3.413 3.413-6.827 10.24zM552.96 720.213c0 3.413 0 3.413 0 0-3.413 3.413-3.413 3.413 0 0l-10.24-6.827v-34.133l6.827-6.827 3.413 3.413v44.373zM484.693 669.013s3.413 0 0 0c3.413 0 3.413 0 0 0l10.24 6.827v34.133l-6.827 6.827h-3.413l-3.413-3.413v-40.96l3.413-3.413zM535.893 716.8s0 3.413 0 0l6.827 6.827v3.413l-6.827 6.827h-34.133l-6.827-6.827v-3.413l6.827-6.827h34.133zM389.12 730.453s3.413 0 0 0l10.24 6.827v34.133l-6.827 6.827h-3.413l-3.413-3.413v-40.96l3.413-3.413zM443.733 771.413v-34.133l6.827-6.827 3.413 3.413v44.373l-3.413 3.413-6.827-10.24c0 3.413 0 3.413 0 0zM406.187 778.24h34.133l6.827 6.827-3.413 3.413h-40.96l-3.413-3.413v-3.413l6.827-3.413zM440.32 672.426h-34.133l-6.827-6.827v-3.413l3.413-3.413h40.96l3.413 3.413-6.827 10.24zM457.387 720.213c0 3.413-3.413 3.413 0 0-3.413 3.413-3.413 3.413 0 0l-10.24-6.827v-34.133l6.827-6.827 3.413 3.413v44.373zM389.12 669.013s3.413 0 0 0l10.24 6.827v34.133l-6.827 6.827h-3.413l-3.413-3.413v-40.96l3.413-3.413zM440.32 716.8s0 3.413 0 0l6.827 6.827v3.413l-6.827 6.827h-34.133l-6.827-6.827v-3.413l6.827-6.827h34.133zM290.133 730.453s3.413 0 0 0c3.413 0 3.413 0 0 0l10.24 6.827v34.133l-6.827 6.827h-3.413l-3.413-3.413v-40.96l3.413-3.413zM348.16 771.413v-34.133l6.827-6.827 3.413 3.413v44.373l-3.413 3.413-6.827-10.24c0 3.413 0 3.413 0 0zM310.613 778.24h34.133l6.827 6.827-3.413 3.413h-40.96l-3.413-3.413v-3.413l6.827-3.413c-3.413 0-3.413 0 0 0zM344.747 672.426c-3.413 0-3.413 0 0 0h-34.133l-6.827-6.827v-3.413l3.413-3.413h40.96l3.413 3.413-6.827 10.24zM358.4 720.213c0 3.413 0 3.413 0 0 0 3.413-3.413 3.413 0 0l-10.24-6.827v-34.133l6.827-6.827 3.413 3.413v44.373zM290.133 669.013s3.413 0 0 0c3.413 0 3.413 0 0 0l10.24 6.827v34.133l-6.827 6.827h-3.413l-3.413-3.413v-40.96l3.413-3.413zM341.333 716.8s0 3.413 0 0l6.827 6.827v3.413l-6.827 6.827h-34.133l-6.827-6.827v-3.413l6.827-6.827h34.133z" />
<glyph unicode="&#xe60f;" d="M385.707 614.4c-20.48 0-40.96-3.413-58.027-10.24s-34.133-17.067-44.373-30.72c-13.653-13.653-23.893-30.72-30.72-47.787s-10.24-40.96-10.24-64.853c0-27.307 3.413-47.787 10.24-68.267s17.067-34.133 30.72-47.787c13.653-13.653 27.307-23.893 47.787-27.307 17.067-6.827 37.547-10.24 58.027-10.24 10.24 0 20.48 0 30.72 3.413s17.067 3.413 27.307 6.827c10.24 3.413 17.067 6.827 23.893 10.24l20.48 10.24v47.787h-3.413c-13.653-13.653-30.72-23.893-47.787-30.72s-34.133-10.24-54.613-10.24c-13.653 0-27.307 3.413-40.96 6.827s-23.893 13.653-34.133 20.48c-10.24 10.24-17.067 20.48-20.48 37.547-6.827 13.653-6.827 34.133-6.827 54.613s3.413 37.547 6.827 51.2 13.653 27.307 20.48 37.547c10.24 10.24 20.48 17.067 30.72 23.893s27.307 6.827 40.96 6.827c17.067 0 34.133-3.413 51.2-10.24s30.72-17.067 47.787-30.72h3.413v47.787c-20.48 10.24-37.547 17.067-54.613 20.48s-30.72 3.413-44.373 3.413zM593.92 549.546c10.24 10.24 20.48 17.067 30.72 23.893s27.307 6.827 40.96 6.827c17.067 0 34.133-3.413 51.2-10.24s30.72-17.067 47.787-30.72h3.413v47.787c-20.48 10.24-37.547 17.067-54.613 20.48s-30.72 6.827-47.787 6.827c-20.48 0-40.96-3.413-58.027-10.24s-34.133-17.067-44.373-30.72c-13.653-13.653-23.893-30.72-30.72-47.787s-10.24-40.96-10.24-64.853c0-27.307 3.413-47.787 10.24-68.267s17.067-34.133 30.72-47.787c13.653-13.653 27.307-23.893 47.787-27.307 17.067-6.827 37.547-10.24 58.027-10.24 10.24 0 20.48 0 30.72 3.413s17.067 3.413 27.307 6.827c10.24 3.413 17.067 6.827 23.893 10.24l20.48 10.24v47.787h-3.413c-13.653-13.653-30.72-23.893-47.787-30.72s-34.133-10.24-54.613-10.24c-13.653 0-27.307 3.413-40.96 6.827s-23.893 13.653-34.133 20.48c-10.24 10.24-17.067 20.48-20.48 37.547-6.827 13.653-6.827 34.133-6.827 54.613s3.413 37.547 6.827 51.2 17.067 27.307 23.893 34.133z" />
<glyph unicode="&#xe610;" d="M884.053 314.026h-293.547c-20.48 0-34.133-17.067-34.133-34.133v-40.96c0-17.067 13.653-34.133 34.133-34.133h293.547c20.48 0 34.133 17.067 34.133 34.133v37.547c0 20.48-13.653 37.547-34.133 37.547zM768 884.053h-703.147v-78.507l252.587-283.307 44.373-358.4 116.053-150.187v498.347l290.133 290.133v81.92z" />
<glyph unicode="&#xe611;" d="M768 389.12v-10.24h54.613v17.067c-13.653-6.827-27.307-10.24-40.96-10.24-3.413 0-6.827 0-13.653 3.413zM225.28 747.52s3.413 0 0 0h95.573c0-3.413-3.413-6.827-3.413-10.24 0-17.067 13.653-30.72 30.72-30.72h283.307c17.067 0 30.72 13.653 30.72 30.72 0 3.413 0 6.827-3.413 10.24h102.4c3.413 0 6.827-3.413 10.24-6.827v-146.773h13.653c13.653 0 30.72-3.413 40.96-10.24v163.84l-3.413 13.653c-13.653 23.893-37.547 40.96-61.44 40.96h-238.933v44.373c0 44.373-58.027 40.96-58.027 0v-44.373h-235.52c-30.72 0-54.613-23.893-54.613-54.613v-174.080c17.067 10.24 34.133 17.067 54.613 20.48l-3.413 153.6zM494.933 866.986c10.24 0 17.067-6.827 17.067-17.067s-6.827-17.067-17.067-17.067-17.067 6.827-17.067 17.067 6.827 17.067 17.067 17.067zM781.653 576.853h-13.653c-40.96-6.827-75.093-40.96-75.093-85.333s30.72-78.507 75.093-85.333h13.653c13.653 0 30.72 3.413 40.96 10.24 27.307 13.653 44.373 44.373 44.373 75.093s-17.067 61.44-44.373 75.093c-10.24 6.827-23.893 10.24-40.96 10.24zM225.28 95.573c-20.48 6.827-37.547 13.653-54.613 20.48v-75.093c0-30.72 23.893-54.613 54.613-54.613h307.2v54.613h-307.2v54.613zM948.907 651.946c-17.067 0-34.133-10.24-34.133-27.307v-262.827h-232.107c-71.68 0-129.707-51.2-129.707-109.227v-245.76h68.267v238.933h37.547v-238.933h221.867v235.52h6.827c78.507 3.413 92.16 61.44 92.16 105.813v276.48c0 17.067-17.067 27.307-30.72 27.307zM225.28 119.466c20.48-6.827 44.373-10.24 68.267-10.24 129.707 0 238.933 105.813 238.933 238.933 0 105.813-71.68 197.973-167.253 228.693h-6.827c-6.827 0-10.24 3.413-17.067 3.413s-13.653 3.413-20.48 3.413h-58.027c-6.827 0-13.653 0-17.067-3.413-6.827 0-10.24-3.413-17.067-3.413h-6.827c-17.067-6.827-34.133-13.653-51.2-23.893-68.267-40.96-116.053-116.053-116.053-204.8 0-85.333 47.787-160.427 116.053-204.8 17.067-6.827 37.547-17.067 54.613-23.893zM95.573 348.16c0 64.853 30.72 119.467 75.093 157.013 17.067 13.653 34.133 23.893 54.613 30.72s44.373 13.653 68.267 13.653c109.227 0 197.973-88.747 197.973-197.973s-88.747-197.973-197.973-197.973c-23.893 0-47.787 3.413-68.267 13.653-20.48 6.827-37.547 17.067-54.613 30.72-44.373 30.72-75.093 88.747-75.093 150.187zM174.080 303.786h133.12c13.653 0 27.307 13.653 27.307 27.307v174.080c0 13.653-13.653 27.307-27.307 27.307s-27.307-13.653-27.307-27.307v-150.187h-105.813c-13.653 0-23.893-13.653-23.893-27.307-3.413-10.24 6.827-20.48 23.893-23.893z" />
<glyph unicode="&#xe612;" d="M645.12 61.44v6.827h-580.267v-64.853h624.64c-23.893 6.827-44.373 30.72-44.373 58.027zM645.12 426.666c0 20.48 10.24 37.547 27.307 51.2h-607.573v-64.853h580.267v13.653zM494.933 215.040v61.44h-430.080v-64.853h430.080v3.413zM839.68 61.44c0-27.307-17.067-47.787-44.373-58.027h163.84v64.853h-119.467v-6.827zM839.68 426.666v-13.653h119.467v64.853h-146.773c17.067-10.24 27.307-30.72 27.307-51.2zM64.853 887.466v-64.853h890.88v64.853h-890.88zM952.32 293.546c-3.413 3.413-6.827 6.827-10.24 6.827s-6.827 3.413-13.653 3.413h-122.88v122.88c0 3.413 0 6.827-3.413 10.24 0 3.413-3.413 3.413-6.827 6.827s-6.827 6.827-10.24 6.827-10.24 3.413-13.653 3.413h-58.027c-3.413 0-10.24 0-13.653-3.413s-6.827-3.413-10.24-6.827l-6.827-6.827c-3.413-3.413-3.413-6.827-3.413-10.24v-122.88h-122.88c-3.413 0-6.827 0-10.24-3.413s-6.827-3.413-10.24-6.827c-3.413-3.413-3.413-6.827-6.827-10.24v-78.507c0-6.827 3.413-13.653 6.827-17.067s6.827-6.827 10.24-6.827c3.413-3.413 6.827-3.413 10.24-3.413h122.88v-116.053c0-17.067 17.067-27.307 34.133-27.307h58.027c17.067 0 34.133 10.24 34.133 27.307v122.88h122.88c6.827 0 17.067 3.413 20.48 10.24 3.413 3.413 3.413 6.827 6.827 10.24 0 3.413 3.413 6.827 3.413 10.24v61.44c0 3.413 0 6.827-3.413 10.24 0 3.413-3.413 6.827-3.413 6.827zM64.853 617.813h890.88v64.853h-890.88v-64.853z" />
<glyph unicode="&#xe613;" d="M242.347 723.626c44.373 0 78.507 37.547 78.507 78.507 0 44.373-37.547 78.507-78.507 78.507s-78.507-37.547-78.507-78.507c-3.413-44.373 34.133-78.507 78.507-78.507zM320.853 703.146h-153.6c-61.44 0-109.227-40.96-109.227-92.16v-218.453c0-17.067 17.067-27.307 37.547-27.307s37.547 13.653 37.547 27.307v204.8h17.067v-552.96c0-20.48 20.48-37.547 44.373-37.547s44.373 17.067 44.373 37.547v320.853h23.893v-320.853c0-20.48 20.48-37.547 44.373-37.547s44.373 17.067 44.373 37.547v549.547h17.067v-204.8c0-17.067 17.067-27.307 37.547-27.307s37.547 13.653 37.547 27.307v218.453c-13.653 54.613-64.853 95.573-122.88 95.573zM771.413 713.386c47.787 0 85.333 37.547 85.333 85.333s-37.547 88.747-85.333 88.747c-44.373 0-85.333-40.96-85.333-85.333s37.547-88.747 85.333-88.747zM771.413 870.4c37.547 0 68.267-30.72 68.267-68.267s-30.72-68.267-68.267-68.267-68.267 34.133-68.267 68.267 30.72 68.267 68.267 68.267zM972.8 610.986c-10.24 58.027-61.44 102.4-126.293 102.4h-153.6c-64.853 0-119.467-44.373-119.467-102.4v-218.453c0-20.48 20.48-37.547 44.373-37.547s40.96 13.653 44.373 30.72v-341.333c0-23.893 23.893-44.373 54.613-44.373s54.613 20.48 54.613 44.373v314.027h6.827v-314.027c0-23.893 23.893-44.373 54.613-44.373s54.613 20.48 54.613 44.373v341.333c3.413-17.067 20.48-30.72 44.373-30.72s44.373 17.067 44.373 37.547l-3.413 218.453zM955.733 389.12c0-10.24-13.653-20.48-27.307-20.48s-27.307 10.24-27.307 20.48v211.627h-34.133v-559.787c0-13.653-17.067-27.307-37.547-27.307s-37.547 13.653-37.547 27.307v331.093h-40.96v-331.093c0-17.067-17.067-27.307-37.547-27.307s-37.547 13.653-37.547 27.307v559.787h-34.133v-211.627c0-10.24-13.653-20.48-27.307-20.48s-27.307 10.24-27.307 20.48v218.453c0 47.787 44.373 85.333 102.4 85.333h153.6c54.613 0 102.4-37.547 109.227-85.333v-218.453zM481.28 556.373h-40.96v-71.68h40.96v-37.547l92.16 71.68-92.16 68.267v-30.72z" />
<glyph unicode="&#xe614;" d="M413.013 754.346c40.96 40.96-54.613 105.813-54.613 105.813 10.24-122.88 54.613-105.813 54.613-105.813zM945.493 484.693c-37.547 40.96-85.333 54.613-139.947 34.133s-64.853-17.067-78.507-3.413c-13.653 13.653 3.413 81.92-20.48 109.227s-58.027 37.547-88.747 27.307c-34.133-3.413-61.44-10.24-98.987-20.48 27.307-40.96 58.027-85.333 81.92-116.053 6.827-10.24 17.067-27.307 30.72-47.787 44.373 0 68.267-17.067 71.68-40.96 0-13.653-13.653-27.307-34.133-37.547-17.067 30.72-34.133 58.027-47.787 78.507s-23.893 37.547-30.72 47.787c-23.893 34.133-51.2 75.093-78.507 116.053-44.373 64.853-78.507 122.88-78.507 122.88l-23.893-20.48s20.48-47.787 54.613-116.053c23.893-47.787 51.2-105.813 81.92-163.84 13.653-23.893 27.307-47.787 40.96-75.093-37.547 3.413-64.853 20.48-64.853 40.96 0 13.653 3.413 20.48 17.067 30.72-30.72 61.44-61.44 119.467-85.333 167.253-75.093-23.893-150.187-61.44-245.76-122.88-167.253-109.227-211.627-310.613-81.92-382.293 119.467-64.853 399.36 0 566.613 81.92 40.96-61.44 78.507-112.64 116.053-146.773 95.573-88.747 34.133 40.96-47.787 187.733 150.187 88.747 221.867 208.213 184.32 249.173z" />
<glyph unicode="&#xe615;" d="M925.013 887.466h-808.96c-27.307 0-51.2-23.893-51.2-51.2v-778.24c0-27.307 23.893-51.2 51.2-51.2h808.96c27.307 0 51.2 23.893 51.2 51.2v778.24c0 27.307-23.893 51.2-51.2 51.2zM942.080 58.026c0-10.24-6.827-17.067-17.067-17.067h-808.96c-10.24 0-17.067 6.827-17.067 17.067v778.24c0 10.24 6.827 17.067 17.067 17.067h808.96c10.24 0 17.067-6.827 17.067-17.067v-778.24zM532.48 764.586c-17.067 0-34.133-3.413-51.2-6.827-17.067-6.827-30.72-13.653-40.96-27.307-13.653-13.653-23.893-27.307-34.133-47.787s-17.067-44.373-20.48-75.093l-13.653-71.68h-75.093v-51.2h64.853l-30.72-177.493c-6.827-40.96-17.067-68.267-30.72-81.92s-30.72-23.893-58.027-23.893c-10.24 0-17.067 0-27.307 3.413s-17.067 6.827-23.893 10.24h-3.413v-64.853c10.24-3.413 20.48-3.413 27.307-3.413h23.893c17.067 0 34.133 3.413 51.2 6.827s30.72 13.653 44.373 27.307 23.893 30.72 34.133 51.2c10.24 20.48 17.067 47.787 23.893 78.507l30.72 177.493h105.813v51.2h-98.987l13.653 68.267c6.827 37.547 17.067 64.853 30.72 78.507s30.72 20.48 54.613 20.48c6.827 0 17.067 0 30.72-3.413 10.24-3.413 20.48-6.827 27.307-6.827h3.413v61.44c-10.24 3.413-20.48 3.413-27.307 3.413-6.827 3.413-17.067 3.413-30.72 3.413zM812.373 597.333l-71.68-85.333-71.68 85.333-30.72-37.547 71.68-85.333-71.68-85.333 30.72-37.547 71.68 85.333 71.68-85.333 30.72 37.547-71.68 85.333 71.68 85.333-30.72 37.547z" />
<glyph unicode="&#xe616;" d="M747.52 699.733l98.987-3.413-146.773 177.493v-126.293c-3.413-23.893 20.48-47.787 47.787-47.787zM651.947 706.56v170.667h-440.32c-27.307 0-47.787-20.48-47.787-47.787v-778.24c0-27.307 20.48-47.787 47.787-47.787h587.093c27.307 0 47.787 20.48 47.787 47.787v607.573h-146.773c-27.307 0-47.787 20.48-47.787 47.787zM501.76 139.946c-139.947 0-252.587 112.64-252.587 252.587s112.64 252.587 252.587 252.587 252.587-112.64 252.587-252.587c0-136.533-112.64-252.587-252.587-252.587zM532.48 406.186v194.56c0 13.653-10.24 20.48-20.48 23.893h-13.653c-10.24-3.413-20.48-13.653-20.48-23.893v-221.867c3.413-3.413 3.413-10.24 10.24-13.653l112.64-81.92c3.413-3.413 10.24-6.827 17.067-6.827 10.24 0 17.067 3.413 23.893 10.24 10.24 13.653 6.827 30.72-6.827 40.96l-102.4 78.507z" />
<glyph unicode="&#xe617;" d="M945.493 460.8v10.24l-129.707 133.12-382.293-378.88-71.68-184.32 13.653-13.653 170.667 54.613 17.067 6.827 293.547 290.133 88.747 81.92zM860.16 61.44v266.24l-116.053-116.053v-153.6h116.053zM979.627 484.693v368.64c0 27.307-23.893 51.2-51.2 51.2h-832.853c-27.307 0-51.2-23.893-51.2-51.2v-815.787c0-27.307 23.893-51.2 51.2-51.2h832.853c27.307 0 51.2 23.893 51.2 51.2v409.6l-34.133-34.133v-375.467c0-10.24-6.827-17.067-17.067-17.067h-467.627l-20.48-6.827-58.027-17.067-20.48-6.827-30.72 30.72h-238.933c-10.24 0-17.067 6.827-17.067 17.067v815.787c0 10.24 6.827 17.067 17.067 17.067h832.853c10.24 0 17.067-6.827 17.067-17.067v-334.507l37.547-34.133zM665.6 61.44v75.093l-75.093-71.68h75.093zM273.067 61.44v484.693h-116.053v-484.693h116.053zM409.6 249.173l58.027 58.027v457.387h-116.053v-658.773l6.827 20.48 44.373 109.227 6.827 13.653zM839.68 628.053l17.067-20.48v157.013h-116.053v-184.32l71.68 71.68 27.307-23.893zM546.133 546.133v-160.427l116.053 116.053v44.373h-116.053z" />
<glyph unicode="&#xe618;" d="M665.6 85.333v37.547h-58.027l58.027-37.547zM665.6 283.306v105.813c0 23.893 23.893 44.373 51.2 44.373h58.027c17.067 0 30.72-6.827 40.96-20.48l163.84 133.12-344.747 17.067-119.467 324.267-122.88-320.853-344.747-17.067 266.24-215.040-88.747-334.507 286.72 187.733v47.787c0 27.307 20.48 51.2 44.373 51.2h109.227zM931.84 249.173h-139.947v139.947c0 3.413 0 3.413-3.413 3.413-3.413 3.413-10.24 6.827-13.653 6.827h-58.027c-6.827 0-17.067-3.413-17.067-10.24v-139.947h-139.947c-6.827 0-10.24-10.24-10.24-17.067v-58.027c0-6.827 3.413-17.067 10.24-17.067h139.947v-136.533c0-6.827 10.24-10.24 17.067-10.24h61.44c6.827 0 13.653 6.827 13.653 10.24v139.947h139.947c6.827 0 10.24 10.24 10.24 17.067v61.44c0 6.827-3.413 10.24-10.24 10.24z" />
<glyph unicode="&#xe619;" d="M918.187 525.653h40.96v-436.907c0-34.133-23.893-54.613-61.44-54.613h-768c-34.133 0-61.44 23.893-61.44 54.613v709.973c0 34.133 23.893 54.613 61.44 54.613h208.213v-37.547h-208.213c-13.653 0-20.48-6.827-20.48-17.067v-709.973c0-13.653 6.827-17.067 20.48-17.067h768c13.653 0 20.48 6.827 20.48 17.067v436.907zM225.28 607.573c-116.053-136.533-13.653-324.267 3.413-372.053-3.413 75.093-13.653 133.12 44.373 204.8 112.64 143.36 314.027 116.053 443.733 112.64v-78.507l197.973 174.080-197.973 197.973v-85.333c-194.56-10.24-354.987 10.24-491.52-153.6zM768 389.12l-129.707 126.293v-54.613s-51.2 3.413-71.68 0c-116.053-3.413-215.040-6.827-300.373-109.227-58.027-75.093-34.133-167.253-13.653-225.28 0 37.547 6.827 71.68 37.547 109.227 61.44 78.507 163.84 88.747 232.107 88.747 27.307 0 116.053-3.413 116.053-3.413v-47.787l129.707 116.053z" />
<glyph unicode="&#xe61a;" d="M617.813 58.026c-3.413 3.413-10.24 6.827-13.653 13.653l-6.827 6.827c-3.413 3.413-6.827 6.827-10.24 13.653l-6.827 6.827c-17.067-3.413-30.72-3.413-47.787-3.413-197.973 0-358.4 160.427-358.4 358.4s160.427 358.4 358.4 358.4 358.4-160.427 358.4-358.4v-6.827s3.413 0 3.413-3.413c0 0 3.413 0 3.413-3.413 3.413-3.413 10.24-6.827 13.653-10.24l6.827-6.827c3.413-3.413 10.24-6.827 13.653-13.653l6.827-6.827c3.413 17.067 3.413 30.72 3.413 47.787 0 228.693-184.32 413.013-413.013 413.013s-413.013-184.32-413.013-413.013c0-228.693 184.32-413.013 413.013-413.013 34.133 0 64.853 3.413 95.573 10.24l-3.413 3.413c-3.413 3.413-3.413 3.413-3.413 6.827zM508.587 720.213v-235.52h-163.84c-20.48 0-37.547-17.067-37.547-40.96s17.067-40.96 37.547-40.96h204.8c10.24 0 17.067 3.413 23.893 10.24h3.413s0 3.413 3.413 3.413c6.827 6.827 10.24 13.653 10.24 23.893v279.893c0 20.48-17.067 37.547-40.96 37.547s-40.96-17.067-40.96-37.547zM768 440.32c-112.64 0-201.387-92.16-201.387-201.387 0-112.64 92.16-201.387 201.387-201.387 112.64 0 201.387 92.16 201.387 201.387 0 112.64-88.747 201.387-201.387 201.387zM747.52 375.466c6.827 6.827 13.653 10.24 20.48 10.24s17.067-3.413 20.48-10.24 10.24-13.653 10.24-23.893c0-10.24-3.413-17.067-10.24-20.48s-13.653-10.24-20.48-10.24c-10.24 0-17.067 3.413-20.48 10.24s-10.24 13.653-10.24 20.48c3.413 10.24 6.827 20.48 10.24 23.893zM829.44 92.16h-112.64v13.653l3.413 3.413c13.653 0 20.48 0 23.893 3.413 3.413 0 3.413 3.413 3.413 10.24v81.92c0 27.307 0 40.96-3.413 44.373 0 3.413-3.413 3.413-10.24 3.413h-17.067l-3.413 3.413v10.24l3.413 3.413c27.307 3.413 51.2 6.827 78.507 17.067l3.413-3.413c-3.413-23.893-3.413-44.373-3.413-61.44v-105.813c0-6.827 3.413-6.827 3.413-10.24 3.413 0 10.24-3.413 23.893-3.413l3.413-3.413v-6.827z" />
<glyph unicode="&#xe61b;" d="M276.48 150.186h228.693c-10.24 20.48-13.653 37.547-17.067 51.2v3.413h-211.627v-54.613zM624.64 6.826c-3.413 0-3.413 3.413-6.827 3.413-3.413 3.413-10.24 6.827-13.653 10.24-6.827 6.827-13.653 10.24-20.48 17.067l-344.747 3.413v706.56h95.573c0-3.413-3.413-6.827-3.413-10.24 0-17.067 13.653-30.72 30.72-30.72h283.307c17.067 0 30.72 13.653 30.72 30.72 0 3.413 0 6.827-3.413 10.24h102.4c3.413 0 6.827-3.413 10.24-6.827v-136.533c6.827 3.413 10.24 10.24 17.067 13.653 3.413 3.413 10.24 6.827 13.653 10.24 3.413 0 3.413 3.413 6.827 3.413 3.413 3.413 6.827 3.413 10.24 6.827l6.827 3.413v105.813l-3.413 13.653c-13.653 27.307-34.133 44.373-61.44 44.373h-238.933v44.373c0 44.373-58.027 40.96-58.027 0v-44.373h-235.52c-30.72 0-54.613-23.893-54.613-54.613v-706.56c0-30.72 23.893-54.613 54.613-54.613h436.907c-17.067 3.413-30.72 10.24-44.373 17.067-3.413-3.413-6.827 0-10.24 0zM508.587 866.986c10.24 0 17.067-6.827 17.067-17.067s-6.827-17.067-17.067-17.067-17.067 6.827-17.067 17.067 6.827 17.067 17.067 17.067zM563.2 450.56l30.72 30.72h-317.44v-54.613h266.24c6.827 6.827 13.653 13.653 20.48 23.893zM969.387 238.933c-3.413 27.307-6.827 37.547-13.653 58.027-6.827 17.067-40.96 75.093-40.96 78.507-3.413 6.827-6.827 10.24-13.653 13.653l-10.24 10.24c3.413-6.827 3.413-13.653 6.827-20.48 3.413-13.653 6.827-27.307 6.827-37.547 3.413-20.48-3.413-75.093-6.827-75.093h-6.827s-68.267 54.613-78.507 143.36 20.48 167.253 23.893 170.667c3.413 10.24 6.827 17.067 10.24 20.48-3.413-3.413-6.827-3.413-10.24-6.827-6.827-3.413-10.24-6.827-17.067-10.24-3.413 0-3.413-3.413-6.827-3.413-3.413-3.413-44.373-37.547-51.2-44.373-20.48-23.893-40.96-51.2-58.027-75.093l-10.24-20.48c-3.413-6.827-3.413-10.24-6.827-17.067s-3.413-13.653-3.413-20.48l-10.24 10.24c-3.413 3.413-3.413 6.827-3.413 10.24-6.827 13.653-6.827 27.307-3.413 44.373v23.893l-13.653-13.653c-13.653-17.067-27.307-61.44-30.72-68.267-3.413-13.653-3.413-23.893-3.413-37.547v-34.133c0-6.827 0-13.653 3.413-17.067 0-6.827 3.413-13.653 3.413-20.48s3.413-10.24 3.413-17.067l6.827-20.48c-3.413 3.413-10.24 6.827-13.653 13.653-3.413 3.413-6.827 6.827-6.827 10.24-10.24 13.653-17.067 30.72-20.48 54.613 0 6.827-3.413 13.653-3.413 23.893v61.44c-17.067-17.067-27.307-34.133-37.547-51.2-6.827-10.24-10.24-20.48-13.653-30.72-3.413-6.827-6.827-23.893-6.827-23.893-3.413-10.24-10.24-71.68-3.413-109.227s58.027-116.053 71.68-129.707c6.827-6.827 44.373-58.027 126.293-64.853 126.293-10.24 167.253 37.547 191.147 64.853s58.027 88.747 51.2 157.013zM498.347 341.333h-221.867v-54.613h208.213c0 13.653 3.413 30.72 10.24 44.373 0 6.827 3.413 6.827 3.413 10.24zM706.56 617.813h-430.080v-54.613h430.080v54.613z" />
<glyph unicode="&#xe61c;" d="M948.907 238.933c10.24-68.267-30.72-136.533-54.613-163.84s-64.853-75.093-191.147-64.853c-81.92 6.827-119.467 54.613-126.293 64.853-13.653 13.653-64.853 92.16-71.68 129.707s0 98.987 3.413 109.227c0 3.413 6.827 20.48 6.827 23.893 3.413 10.24 10.24 20.48 13.653 30.72 10.24 17.067 23.893 34.133 37.547 51.2v-61.44c0-6.827 0-17.067 3.413-23.893 3.413-23.893 10.24-40.96 20.48-54.613 3.413-3.413 3.413-6.827 6.827-10.24l13.653-13.653c0 3.413-3.413 10.24-6.827 20.48 0 3.413-3.413 10.24-3.413 17.067s-3.413 13.653-3.413 20.48c0 6.827 0 13.653-3.413 17.067v34.133c0 13.653 0 23.893 3.413 37.547 0 3.413 17.067 51.2 30.72 68.267l13.653 13.653v-23.893c0-13.653 0-30.72 3.413-44.373 0-3.413 3.413-6.827 3.413-10.24l10.24-10.24c0 6.827 3.413 13.653 3.413 20.48 3.413 6.827 3.413 10.24 6.827 17.067l10.24 20.48c13.653 27.307 34.133 51.2 58.027 75.093 6.827 6.827 44.373 40.96 51.2 44.373 3.413 0 3.413 3.413 6.827 3.413 6.827 3.413 10.24 6.827 17.067 10.24 3.413 3.413 6.827 3.413 10.24 6.827l-10.24-20.48c-3.413-3.413-30.72-81.92-23.893-170.667s75.093-143.36 78.507-143.36h6.827c3.413 0 10.24 54.613 6.827 75.093-3.413 13.653-3.413 27.307-6.827 37.547-3.413 6.827-3.413 13.653-6.827 20.48l10.24-10.24c3.413-3.413 6.827-10.24 13.653-13.653 3.413-3.413 34.133-61.44 40.96-78.507 10.24-10.24 13.653-23.893 17.067-51.2zM890.88 655.36l-20.48-54.613c17.067-44.373 27.307-88.747 27.307-136.533 0-13.653 0-27.307-3.413-40.96l10.24 6.827 10.24-10.24c6.827-6.827 10.24-13.653 17.067-23.893 3.413 23.893 6.827 47.787 6.827 71.68 0 64.853-17.067 129.707-47.787 187.733zM508.587 890.88c-235.52 0-426.667-191.147-426.667-426.667 0-238.933 191.147-430.080 426.667-430.080 20.48 0 40.96 3.413 61.44 3.413-6.827 6.827-13.653 13.653-20.48 17.067-6.827 6.827-10.24 13.653-17.067 20.48h-27.307c-211.627 0-385.707 174.080-385.707 385.707s174.080 385.707 385.707 385.707c143.36 0 269.653-78.507 337.92-197.973l40.96 20.48c-71.68 133.12-215.040 221.867-375.467 221.867zM563.2 788.48c0 20.48-17.067 37.547-37.547 37.547s-37.547-17.067-37.547-37.547v-286.72h-204.8c-20.48 0-37.547-17.067-37.547-37.547s17.067-37.547 37.547-37.547h245.76c20.48 0 37.547 17.067 37.547 37.547v324.267z" />
<glyph unicode="&#xe61d;" d="M249.173 187.733h365.227v160.427h-341.333l-23.893-160.427zM300.373 314.026h276.48v-92.16h-290.133l13.653 92.16zM621.227 447.146h-300.373l-88.747 402.773c-6.827 34.133-44.373 58.027-81.92 51.2-17.067-3.413-34.133-13.653-40.96-30.72-10.24-13.653-13.653-34.133-10.24-51.2l102.4-453.973c3.413-10.24 6.827-23.893 17.067-30.72l-44.373-300.373c0-10.24 0-23.893 6.827-30.72s17.067-13.653 27.307-17.067c23.893-3.413 44.373 13.653 47.787 37.547l17.067 116.053h303.787v-109.227c0-23.893 20.48-40.96 40.96-40.96s40.96 20.48 40.96 40.96v300.373c17.067 13.653 23.893 30.72 23.893 51.2 6.827 34.133-23.893 64.853-61.44 64.853zM638.293 351.573l-6.827-3.413v-320.853c0-10.24-17.067-10.24-17.067 0v143.36h-368.64l-20.48-143.36c0-3.413-3.413-6.827-10.24-6.827-3.413 0-3.413 3.413-6.827 3.413 0 0-3.413 3.413 0 6.827l44.373 320.853-6.827 6.827c-6.827 3.413-10.24 10.24-13.653 20.48l-102.4 453.973c-3.413 10.24 0 17.067 3.413 23.893s13.653 13.653 20.48 13.653c17.067 3.413 37.547-6.827 40.96-23.893l95.573-430.080h327.68c17.067 0 34.133-13.653 34.133-34.133 3.413-13.653-3.413-23.893-13.653-30.72zM928.427 713.386h-143.36v143.36c0 6.827-10.24 10.24-17.067 10.24h-58.027c-6.827 0-17.067-3.413-17.067-10.24v-143.36h-143.36c-6.827 0-10.24-10.24-10.24-17.067v-58.027c0-6.827 3.413-17.067 10.24-17.067h143.36v-136.533c0-6.827 10.24-10.24 17.067-10.24h58.027c6.827 0 17.067 3.413 17.067 10.24v143.36h143.36c6.827 0 10.24 10.24 10.24 17.067v58.027c3.413 6.827 0 10.24-10.24 10.24z" />
<glyph unicode="&#xe61e;" d="M518.827 508.586c-10.24 0-20.48-3.413-27.307-6.827s-10.24-13.653-10.24-27.307h71.68c0 10.24-3.413 20.48-6.827 23.893s-17.067 10.24-27.307 10.24zM925.013 894.293h-829.44c-20.48 0-34.133-17.067-34.133-34.133v-819.2c0-17.067 13.653-34.133 34.133-34.133h829.44c20.48 0 34.133 17.067 34.133 34.133v819.2c0 17.067-17.067 34.133-34.133 34.133zM344.747 368.64l-68.267 88.747-13.653-17.067v-71.68h-58.027v221.867h58.027v-102.4l78.507 102.4h68.267l-88.747-102.4 92.16-119.467h-68.267zM607.573 443.733h-122.88c0-13.653 6.827-23.893 13.653-30.72 10.24-6.827 23.893-10.24 40.96-10.24 10.24 0 23.893 3.413 34.133 6.827s20.48 6.827 23.893 13.653h6.827v-44.373c-13.653-3.413-23.893-6.827-34.133-10.24s-23.893-3.413-34.133-3.413c-34.133 0-58.027 6.827-78.507 23.893s-27.307 37.547-27.307 64.853c0 27.307 10.24 51.2 23.893 64.853 17.067 17.067 40.96 23.893 71.68 23.893 27.307 0 47.787-6.827 61.44-20.48s20.48-34.133 20.48-61.44v-17.067zM720.213 307.2h-58.027l27.307 61.44-64.853 167.253h58.027l40.96-109.227 37.547 109.227h54.613l-95.573-228.693z" />
<glyph unicode="&#xe61f;" d="M474.453 737.28v-235.52h-163.84c-20.48 0-37.547-17.067-37.547-40.96 0-20.48 17.067-40.96 37.547-40.96h204.8c10.24 0 17.067 3.413 23.893 10.24l3.413 6.827c6.827 6.827 10.24 13.653 10.24 23.893v276.48c0 20.48-17.067 37.547-40.96 37.547s-37.547-17.067-37.547-37.547zM136.533 467.626c0 197.973 160.427 358.4 358.4 358.4 167.253 0 307.2-116.053 348.16-269.653v68.267c0 13.653 6.827 27.307 17.067 34.133-68.267 129.707-208.213 221.867-365.227 221.867-228.693 0-413.013-184.32-413.013-413.013 0-221.867 177.493-402.773 395.947-413.013v54.613c-187.733 6.827-341.333 163.84-341.333 358.4zM894.293 651.946c-10.24 0-17.067-3.413-23.893-10.24-6.827-3.413-10.24-10.24-10.24-17.067v-262.827h-232.107c-71.68 0-129.707-51.2-129.707-109.227v-249.173h68.267v238.933h37.547v-238.933l221.867-3.413v242.347h13.653c68.267 6.827 85.333 61.44 85.333 102.4v279.893c3.413 17.067-17.067 27.307-30.72 27.307zM641.707 491.52c0-47.787 37.547-88.747 88.747-88.747s88.747 37.547 88.747 88.747-37.547 88.747-88.747 88.747-88.747-40.96-88.747-88.747z" />
<glyph unicode="&#xe620;" d="M747.52 740.693h-337.92v-61.44h337.92v61.44zM375.467 535.893h-102.4v-102.4h102.4v102.4zM341.333 467.626h-34.133v34.133h34.133v-34.133zM273.067 211.626h102.4v102.4h-102.4v-102.4zM307.2 279.893h34.133v-34.133h-34.133v34.133zM375.467 761.173h-102.4v-102.4h102.4v102.4zM341.333 692.906h-34.133v34.133h34.133v-34.133zM232.107 54.613v795.307h539.307v-201.387c3.413 6.827 10.24 10.24 17.067 13.653 3.413 0 6.827 3.413 10.24 3.413s6.827 0 10.24 3.413h3.413c3.413 0 6.827 0 13.653-3.413v177.493c0 34.133-23.893 58.027-54.613 58.027h-539.307c-30.72 0-54.613-23.893-54.613-54.613v-791.893c0-34.133 23.893-58.027 54.613-58.027h170.667v54.613h-170.667v3.413zM798.72 235.52c-3.413 0-6.827-3.413-10.24-3.413-6.827 0-10.24-3.413-17.067-3.413v-174.080h-6.827v-54.613h6.827c34.133 0 54.613 30.72 54.613 58.027v194.56c-6.827-3.413-10.24-6.827-17.067-10.24-3.413-3.413-6.827-6.827-10.24-6.827zM546.133 491.52c0 6.827 0 17.067 3.413 23.893h-136.533v-61.44h143.36c-10.24 13.653-10.24 23.893-10.24 37.547zM648.533 576.853c-40.96 0-71.68-27.307-81.92-64.853-3.413-6.827-3.413-17.067-3.413-23.893 0-13.653 3.413-23.893 6.827-37.547 13.653-30.72 44.373-51.2 78.507-51.2s64.853 20.48 78.507 51.2c3.413 10.24 6.827 23.893 6.827 37.547 0 6.827 0 17.067-3.413 23.893-10.24 37.547-40.96 64.853-81.92 64.853zM826.027 648.533c-3.413 0-6.827 3.413-13.653 3.413h-3.413c-3.413 0-6.827 0-10.24-3.413-3.413 0-6.827-3.413-10.24-6.827-6.827-3.413-10.24-10.24-10.24-20.48v-262.827h-232.107c-54.613 0-98.987-27.307-119.467-68.267-6.827-13.653-10.24-27.307-10.24-40.96v-245.76h68.267v238.933h37.547v-238.933l221.867-3.413v238.933h6.827c6.827 0 10.24 0 17.067 3.413 6.827 0 10.24 3.413 17.067 3.413 3.413 0 6.827 3.413 10.24 3.413 3.413 3.413 6.827 3.413 10.24 6.827 6.827 3.413 13.653 10.24 17.067 17.067 17.067 20.48 20.48 47.787 20.48 71.68v279.893c3.413 10.24-6.827 20.48-17.067 23.893z" />
<glyph unicode="&#xe621;" d="M570.027 54.613l-6.827 6.827c-3.413 3.413-6.827 6.827-10.24 13.653 0 0-3.413 6.827-6.827 6.827-17.067-3.413-30.72-3.413-47.787-3.413-197.973 0-358.4 160.427-358.4 358.4s160.427 358.4 358.4 358.4 358.4-160.427 358.4-358.4v-6.827l6.827-3.413c3.413-3.413 10.24-6.827 13.653-10.24 0 0 6.827-3.413 6.827-6.827 3.413-3.413 10.24-6.827 13.653-13.653l6.827-6.827c3.413 17.067 3.413 30.72 3.413 47.787 0 228.693-184.32 413.013-413.013 413.013s-413.013-184.32-413.013-413.013c0-228.693 184.32-413.013 413.013-413.013 34.133 0 64.853 3.413 95.573 10.24 0 0-6.827 6.827-10.24 6.827-3.413 6.827-6.827 10.24-10.24 13.653zM901.12 249.173l47.787 27.307-13.653 37.547-54.613-3.413-17.067 27.307 17.067 54.613-30.72 23.893-40.96-37.547-37.547 10.24-13.653 58.027h-40.96l-13.653-54.613-40.96-6.827-37.547 34.133-34.133-27.307 20.48-51.2-17.067-23.893-58.027 3.413-10.24-34.133 51.2-30.72-3.413-37.547-47.787-30.72 13.653-40.96 54.613 6.827 17.067-30.72-17.067-51.2 34.133-23.893 44.373 34.133 34.133-13.653 13.653-51.2h37.547l13.653 54.613 40.96 10.24 37.547-34.133 34.133 23.893-20.48 51.2 23.893 27.307h54.613l13.653 37.547-47.787 30.72v30.72zM819.2 208.213c-6.827-30.72-30.72-54.613-61.44-64.853-64.853-17.067-119.467 37.547-109.227 102.4 6.827 37.547 37.547 64.853 75.093 68.267 61.44 6.827 109.227-44.373 95.573-105.813zM474.453 709.973v-235.52h-163.84c-20.48 0-37.547-17.067-37.547-40.96s17.067-40.96 37.547-40.96h204.8c17.067 0 37.547 6.827 37.547 37.547v279.893c0 20.48-17.067 37.547-40.96 37.547s-37.547-17.067-37.547-37.547z" />
<glyph unicode="&#xe622;" d="M768 884.053h-703.147v-78.507l252.587-283.307 44.373-358.4 116.053-146.773v494.933l290.133 290.133zM931.84 296.96l-13.653 37.547-54.613-3.413-17.067 27.307 17.067 54.613-30.72 23.893-40.96-37.547-37.547 10.24-13.653 58.027h-40.96l-13.653-54.613-40.96-6.827-37.547 34.133-34.133-27.307 20.48-51.2-17.067-23.893-64.853 3.413-10.24-34.133 51.2-30.72-6.827-37.547-47.787-30.72 13.653-40.96 54.613 6.827 17.067-30.72-17.067-51.2 34.133-23.893 44.373 34.133 34.133-13.653 13.653-51.2h37.547l13.653 54.613 40.96 10.24 37.547-34.133 34.133 23.893-20.48 51.2 23.893 27.307h54.613l13.653 37.547-47.787 30.72v34.133l51.2 23.893zM716.8 163.84c-47.787 0-88.747 37.547-88.747 88.747s37.547 88.747 88.747 88.747c47.787 0 88.747-37.547 88.747-88.747s-40.96-88.747-88.747-88.747z" />
<glyph unicode="&#xe623;" d="M706.56 296.96c-30.72 0-54.613-23.893-54.613-54.613s23.893-54.613 54.613-54.613c30.72 0 54.613 23.893 54.613 54.613s-23.893 54.613-54.613 54.613zM877.227 225.28v37.547l47.787 27.307-13.653 37.547-54.613-3.413-17.067 27.307 17.067 54.613-30.72 23.893-40.96-37.547-37.547 10.24-13.653 58.027h-40.96l-6.827-30.72-6.827-27.307-40.96-6.827-37.547 34.133-34.133-27.307 20.48-51.2-17.067-23.893-58.027 3.413-10.24-34.133 51.2-30.72-3.413-37.547-47.787-30.72 13.653-40.96 54.613 6.827 17.067-30.72-17.067-51.2 34.133-23.893 44.373 34.133 34.133-13.653 10.24-37.547 3.413-13.653h37.547l13.653 54.613 40.96 10.24 30.72-27.307 6.827-3.413 34.133 23.893-20.48 51.2 23.893 27.307h54.613l13.653 37.547-54.613 23.893zM706.56 157.013c-47.787 0-88.747 37.547-88.747 88.747 0 47.787 37.547 88.747 88.747 88.747s88.747-37.547 88.747-88.747-40.96-88.747-88.747-88.747zM447.147 467.626c116.053 0 211.627 95.573 211.627 211.627s-95.573 211.627-211.627 211.627c-116.053 0-211.627-95.573-211.627-211.627s95.573-211.627 211.627-211.627zM645.12 54.613l-27.307-20.48-20.48-13.653-20.48 13.653-54.613 37.547 20.48 54.613-54.613-6.827-30.72 92.16 54.613 37.547-54.613 34.133 27.307 85.333 58.027-3.413-20.48 47.787 20.48 17.067 3.413 3.413h-286.72c-81.92 0-146.773-109.227-146.773-201.387v-225.28h549.547l-6.827 17.067-10.24 30.72zM774.827 58.026h-3.413l-10.24-34.133-3.413-17.067h58.027v17.067l-17.067 17.067-23.893 17.067z" />
<glyph unicode="&#xe624;" d="M610.987 64.853l-20.48 6.827-44.373-34.133-10.24-6.827-61.44 40.96 3.413 13.653 17.067 47.787-10.24 17.067-51.2-6.827h-13.653l-3.413 13.653-17.067 47.787-3.413 13.653 10.24 6.827 47.787 30.72 3.413 23.893-47.787 27.307-10.24 6.827 3.413 13.653 13.653 40.96 3.413 13.653h13.653l58.027-3.413 10.24 10.24-20.48 47.787-3.413 10.24 10.24 6.827 40.96 34.133 10.24 10.24 10.24-10.24 37.547-34.133 27.307 3.413 13.653 47.787h-296.96v283.307h399.36v-276.48h-17.067l13.653-51.2 23.893-6.827 40.96 37.547 10.24 10.24 6.827-6.827v392.533h-559.787v-880.64h382.293v3.413l-20.48 54.613zM361.813 399.36c-17.067 0-34.133 13.653-34.133 34.133s13.653 34.133 34.133 34.133 34.133-13.653 34.133-34.133-17.067-34.133-34.133-34.133zM860.16 242.346v40.96l54.613 27.307-17.067 44.373-61.44-6.827-20.48 34.133 20.48 61.44-30.72 20.48-6.827 3.413-47.787-44.373-40.96 10.24-17.067 64.853h-47.787l-17.067-64.853-44.373-6.827-44.373 37.547-40.96-34.133 6.827-17.067 17.067-40.96-20.48-27.307-68.267 3.413-13.653-40.96 58.027-34.133-3.413-27.307v-13.653l-54.613-34.133 17.067-47.787 61.44 6.827 20.48-34.133-20.48-58.027 40.96-27.307 51.2 37.547 40.96-13.653 6.827-20.48 10.24-37.547h44.373l3.413 17.067 13.653 44.373 37.547 6.827 10.24 3.413 40.96-37.547 10.24 6.827 27.307 17.067-23.893 58.027v3.413l23.893 27.307h64.853l13.653 40.96-44.373 27.307-10.24 23.893zM764.587 262.826c0-6.827 0-13.653-3.413-20.48s-3.413-13.653-6.827-20.48-13.653-23.893-20.48-30.72-44.373-30.72-71.68-30.72c-10.24 0-20.48 0-27.307 3.413s-17.067 6.827-23.893 10.24c-6.827 3.413-10.24 6.827-13.653 10.24 0 0-3.413 0-3.413 3.413-13.653 13.653-23.893 30.72-27.307 47.787 0 6.827-3.413 13.653-3.413 20.48v3.413c0 13.653 3.413 27.307 6.827 37.547s13.653 23.893 20.48 30.72l13.653 13.653c6.827 6.827 17.067 10.24 27.307 13.653s20.48 3.413 30.72 3.413c10.24 0 20.48 0 30.72-3.413s17.067-6.827 27.307-13.653c6.827-3.413 10.24-6.827 13.653-13.653 10.24-10.24 17.067-20.48 20.48-30.72 3.413-6.827 3.413-13.653 6.827-20.48 3.413 0 3.413-6.827 3.413-13.653zM791.893 30.72l-10.24 10.24-37.547 30.72-27.307-6.827-13.653-51.2v-3.413h102.4v30.72h-3.413l-10.24-10.24z" />
<glyph unicode="&#xe625;" d="M604.16 692.906l88.747 95.573h-279.893l-92.16-95.573h283.307zM395.947 788.48h-238.933l-92.16-95.573h242.347l88.747 95.573zM713.387 788.48l-98.987-109.227h-546.133v-679.253h897.707v788.48h-252.587zM945.493 27.306h-856.747v634.88h856.747v-634.88zM426.667 262.826l17.067-47.787h3.413l58.027 6.827 20.48-34.133-20.48-58.027 40.96-27.307 51.2 37.547 37.547-13.653 13.653-58.027h44.373l17.067 61.44 47.787 10.24 40.96-37.547 37.547 27.307-23.893 58.027 27.307 30.72h61.44l13.653 40.96-54.613 34.133v40.96l54.613 30.72-17.067 44.373-61.44-6.827-20.48 34.133 20.48 61.44-34.133 27.307-47.787-44.373-40.96 10.24-17.067 64.853h-47.787l-17.067-64.853-44.373-6.827-44.373 37.547-40.96-34.133 23.893-58.027-20.48-27.307-68.267 3.413-13.653-40.96 20.48-13.653 37.547-20.48-3.413-40.96-51.2-27.307zM672.427 413.013c13.653 0 27.307-3.413 37.547-6.827 37.547-13.653 61.44-51.2 61.44-92.16s-27.307-78.507-61.44-92.16c-10.24-3.413-23.893-6.827-37.547-6.827-54.613 0-98.987 44.373-98.987 98.987s44.373 98.987 98.987 98.987z" />
<glyph unicode="&#xe626;" d="M754.347 706.56l98.987-3.413-146.773 177.493v-126.293c0-27.307 20.48-47.787 47.787-47.787zM658.773 709.973v170.667h-440.32c-27.307 0-47.787-20.48-47.787-47.787v-778.24c0-27.307 20.48-47.787 47.787-47.787h587.093c27.307 0 47.787 20.48 47.787 47.787v607.573h-146.773c-27.307 0-47.787 23.893-47.787 47.787zM740.693 416.426l-51.2-47.787c-23.893-23.893-40.96-71.68-34.133-105.813l10.24-68.267c6.827-34.133-13.653-47.787-44.373-34.133l-61.44 30.72c-30.72 17.067-81.92 17.067-112.64 0l-61.44-30.72c-30.72-17.067-51.2 0-44.373 34.133l10.24 68.267c6.827 34.133-10.24 81.92-34.133 105.813l-51.2 47.787c-23.893 23.893-17.067 47.787 17.067 54.613l68.267 10.24c34.133 3.413 75.093 34.133 92.16 64.853l30.72 61.44c17.067 30.72 40.96 30.72 54.613 0l30.72-61.44c17.067-30.72 54.613-61.44 92.16-64.853l68.267-10.24c37.547-6.827 44.373-30.72 20.48-54.613z" />
<glyph unicode="&#xe627;" d="M481.28 467.626c10.24 3.413 20.48 3.413 30.72 3.413l61.44 47.787-92.16 68.267v-34.133h-40.96v-71.68h40.96v-13.653zM771.413 713.386c47.787 0 85.333 37.547 85.333 85.333s-37.547 88.747-85.333 88.747c-44.373 0-85.333-40.96-85.333-85.333s37.547-88.747 85.333-88.747zM771.413 870.4c37.547 0 68.267-30.72 68.267-68.267s-30.72-68.267-68.267-68.267-68.267 34.133-68.267 68.267 30.72 68.267 68.267 68.267zM242.347 723.626c44.373 0 78.507 37.547 78.507 78.507 0 44.373-37.547 78.507-78.507 78.507s-78.507-37.547-78.507-78.507c-3.413-44.373 34.133-78.507 78.507-78.507zM529.067 419.84c-116.053 0-211.627-95.573-211.627-211.627s95.573-211.627 211.627-211.627 211.627 95.573 211.627 211.627c0 119.467-92.16 211.627-211.627 211.627zM669.013 167.253h-279.893c-10.24 0-17.067 6.827-17.067 17.067v51.2c0 10.24 6.827 17.067 17.067 17.067h279.893c10.24 0 17.067-6.827 17.067-17.067v-51.2c0-10.24-6.827-17.067-17.067-17.067zM682.667 600.746h-34.133v-157.013c10.24-6.827 23.893-13.653 34.133-20.48v177.493zM348.16 399.36v194.56h17.067v-180.907c20.48 17.067 47.787 30.72 71.68 40.96v153.6c-6.827 51.2-58.027 92.16-119.467 92.16h-153.6c-61.44 0-109.227-40.96-109.227-92.16v-218.453c0-17.067 17.067-27.307 37.547-27.307s37.547 13.653 37.547 27.307v204.8h17.067v-552.96c0-20.48 20.48-37.547 44.373-37.547s44.373 17.067 44.373 37.547v320.853h23.893v-320.853c0-20.48 20.48-37.547 44.373-37.547 17.067 0 34.133 10.24 40.96 23.893-47.787 47.787-75.093 112.64-75.093 184.32s30.72 139.947 78.507 187.733zM754.347 40.96c0-17.067-17.067-27.307-37.547-27.307-3.413 0-10.24 0-13.653 3.413-3.413-3.413-10.24-6.827-13.653-13.653 6.827-3.413 17.067-6.827 27.307-6.827 30.72 0 54.613 20.48 54.613 44.373v64.853c-3.413-10.24-10.24-20.48-17.067-30.72v-34.133zM972.8 610.986c-10.24 58.027-61.44 102.4-126.293 102.4h-153.6c-64.853 0-119.467-44.373-119.467-102.4v-139.947c6.827 0 10.24-3.413 17.067-3.413v143.36c0 47.787 44.373 85.333 102.4 85.333h153.6c54.613 0 102.4-37.547 109.227-85.333v-218.453c0-10.24-13.653-20.48-27.307-20.48s-27.307 10.24-27.307 20.48v211.627h-34.133v-559.787c0-13.653-17.067-27.307-37.547-27.307s-37.547 13.653-37.547 27.307v331.093h-40.96v-20.48c6.827-10.24 13.653-20.48 17.067-30.72v37.547h6.827v-54.613c10.24-27.307 13.653-58.027 13.653-85.333s-6.827-58.027-13.653-85.333v-81.92c0-23.893 23.893-44.373 54.613-44.373s54.613 20.48 54.613 44.373v341.333c3.413-17.067 20.48-30.72 44.373-30.72s44.373 17.067 44.373 37.547v208.213z" />
<glyph unicode="&#xe628;" d="M948.907 443.733v354.987c0 51.2-6.827 81.92-64.853 85.333h-204.8c-13.653 0-23.893-6.827-23.893-54.613v-13.653c0-47.787 10.24-54.613 23.893-54.613h122.88v-634.88h-122.88c-13.653 0-23.893-6.827-23.893-54.613v-13.653c0-47.787 10.24-54.613 23.893-54.613h208.213c51.2 6.827 58.027 34.133 58.027 85.333 6.827 20.48 3.413 184.32 3.413 354.987zM750.933 460.8c-6.827 6.827-197.973 157.013-256 211.627-13.653 13.653-20.48 6.827-20.48-13.653v-78.507c-81.92 0-269.653 3.413-324.267 3.413-61.44 0-85.333-17.067-85.333-51.2v-167.253c0-34.133 23.893-54.613 85.333-54.613 54.613 0 245.76 0 324.267-3.413v-78.507c0-20.48 6.827-23.893 17.067-13.653 58.027 51.2 249.173 218.453 259.413 225.28 6.827 6.827 6.827 17.067 0 20.48z" />
<glyph unicode="&#xe629;" d="M955.733 597.333v-194.56c0-10.24-13.653-20.48-23.893-20.48-13.653 0-23.893 6.827-23.893 20.48v187.733h-34.133v-494.933c0-10.24-13.653-23.893-30.72-23.893-6.827 0-30.72 0-30.72 23.893v290.133h-37.547v-290.133c0-10.24-13.653-23.893-30.72-23.893-6.827 0-30.72 0-30.72 23.893v494.933h-3.413v23.893c-3.413 20.48-10.24 37.547-23.893 51.2 10.24 3.413 23.893 6.827 37.547 6.827h133.12c47.787 0 92.16-34.133 98.987-75.093zM296.96 675.84h-133.12c-51.2 0-92.16-30.72-92.16-75.093v-191.147c0-10.24 10.24-20.48 23.893-20.48 10.24 0 23.893 6.827 23.893 20.48v187.733h34.133v-494.933c0-20.48 23.893-23.893 30.72-23.893 17.067 0 30.72 13.653 30.72 23.893v290.133h37.547v-290.133c0-20.48 23.893-23.893 30.72-23.893 17.067 0 30.72 13.653 30.72 23.893v491.52h6.827v20.48c0 20.48 6.827 37.547 17.067 54.613-10.24 3.413-23.893 6.827-40.96 6.827zM665.6 665.6l-6.827 6.827c-20.48 17.067-44.373 27.307-71.68 27.307h-150.187c-27.307 0-51.2-10.24-68.267-23.893l-13.653-13.653c-10.24-13.653-17.067-30.72-17.067-47.787v-215.040c0-10.24 10.24-20.48 27.307-20.48 13.653 0 27.307 6.827 27.307 20.48v208.213h34.133v-546.133c0-13.653 17.067-27.307 34.133-27.307 20.48 0 34.133 13.653 34.133 27.307v320.853h40.96v-320.853c0-13.653 17.067-27.307 34.133-27.307s34.133 13.653 34.133 27.307v546.133h34.133v-208.213c0-3.413 3.413-10.24 6.827-13.653s13.653-6.827 20.48-6.827h10.24c10.24 3.413 17.067 10.24 17.067 17.067v218.453c-3.413 17.067-10.24 30.72-20.48 44.373l-6.827 6.827zM228.693 713.386c34.133 0 61.44 27.307 61.44 61.44s-27.307 61.44-61.44 61.44-61.44-27.307-61.44-61.44c3.413-37.547 27.307-61.44 61.44-61.44zM791.893 713.386c34.133 0 61.44 27.307 61.44 61.44s-27.307 61.44-61.44 61.44-61.44-27.307-61.44-61.44c3.413-37.547 27.307-61.44 61.44-61.44zM512 733.866c37.547 0 68.267 30.72 68.267 68.267s-30.72 68.267-68.267 68.267c-34.133 0-68.267-30.72-68.267-68.267s30.72-68.267 68.267-68.267z" />
<glyph unicode="&#xe62a;" d="M419.84 488.106c112.64 0 204.8 92.16 204.8 204.8s-92.16 204.8-204.8 204.8-204.8-92.16-204.8-204.8 88.747-204.8 204.8-204.8zM552.96 385.706h6.827v27.307h136.533c-27.307 27.307-61.44 40.96-92.16 40.96h-368.64c-78.507 0-139.947-105.813-139.947-194.56v-218.453h382.293c-13.653 17.067-23.893 40.96-23.893 64.853v184.32c0 51.2 44.373 95.573 98.987 95.573zM870.4 351.573h-129.707v27.307h-146.773v-51.2h-54.613v23.893c-30.72-6.827-51.2-30.72-51.2-61.44v-187.733c0-34.133 27.307-64.853 64.853-64.853h320.853c34.133 0 64.853 27.307 64.853 64.853v184.32c-3.413 37.547-30.72 64.853-68.267 64.853zM672.427 85.333c-68.267 0-122.88 54.613-122.88 122.88s54.613 122.88 122.88 122.88 122.88-54.613 122.88-122.88-54.613-122.88-122.88-122.88zM672.427 296.96c-47.787 0-88.747-40.96-88.747-88.747s40.96-88.747 88.747-88.747 88.747 40.96 88.747 88.747-40.96 88.747-88.747 88.747z" />
<glyph unicode="&#xe62b;" d="M921.6 351.573h-44.373v-68.267h-13.653v187.733l-6.827 3.413-81.92 44.373h-249.173v-235.52h-13.653v68.267h-44.373c-20.48-81.92-17.067-163.84 0-242.347h58.027v-98.987h337.92v98.987h61.44c13.653 81.92 10.24 163.84-3.413 242.347zM812.373 460.8l-27.307-3.413-6.827 23.893 34.133-20.48zM556.373 488.106h201.387l10.24-44.373 3.413-6.827h6.827l51.2 6.827v-157.013h-273.067v201.387zM829.44 47.786h-269.653v112.64h269.653v-112.64zM877.227 225.28h-54.613v20.48h54.613v-20.48zM447.147 105.813c-20.48 81.92-20.48 167.253 0 249.173l3.413 13.653h54.613v58.027h-194.56c-78.507 0-139.947-105.813-139.947-194.56v-218.453h334.507v78.507h-54.613l-3.413 13.653zM593.92 375.466h191.147v17.067h-191.147v-17.067zM498.347 464.213h10.24v75.093h146.773c30.72 37.547 47.787 81.92 47.787 133.12 0 112.64-92.16 204.8-204.8 204.8s-204.8-92.16-204.8-204.8 88.747-208.213 204.8-208.213zM733.867 433.493h-139.947v-17.067h139.947v17.067zM593.92 331.093h191.147v17.067h-191.147v-17.067z" />
<glyph unicode="&#xe62c;" d="M426.667 433.493h-242.347l-71.68 320.853c-3.413 20.48-23.893 34.133-47.787 30.72-20.48-3.413-34.133-23.893-30.72-47.787l78.507-351.573c3.413-10.24 6.827-17.067 13.653-20.48l-34.133-238.933c0-10.24 6.827-20.48 17.067-20.48h3.413c10.24 0 17.067 6.827 20.48 17.067l13.653 98.987h259.413v-95.573c0-10.24 10.24-20.48 20.48-20.48s20.48 10.24 20.48 20.48v238.933c10.24 6.827 20.48 17.067 20.48 34.133-3.413 17.067-20.48 34.133-40.96 34.133zM406.187 259.413h-252.587l13.653 95.573h238.933v-95.573zM624.64 467.626h191.147v17.067h-191.147v-17.067zM624.64 426.666h191.147v17.067h-191.147v-17.067zM955.733 447.146h-44.373v-68.267h-13.653v187.733l-6.827 3.413-81.92 44.373h-249.173v-235.52h-13.653v68.267h-44.373c-20.48-81.92-17.067-163.84 0-242.347h58.027v-98.987h337.92v98.987h61.44c10.24 81.92 10.24 160.427-3.413 242.347zM846.507 552.96l-27.307-3.413-6.827 23.893 34.133-20.48zM590.507 580.266h201.387l10.24-44.373 3.413-6.827h6.827l51.2 6.827v-157.013h-273.067v201.387zM860.16 139.946h-269.653v112.64h269.653v-112.64zM907.947 317.44h-54.613v23.893h54.613v-23.893zM764.587 525.653h-139.947v-13.653h139.947v13.653z" />
<glyph unicode="&#xe62d;" d="M658.773 498.346h-430.080v-54.613h430.080v54.613zM658.773 638.293h-430.080v-54.613h430.080v54.613zM914.773 112.64c-10.24 51.2-58.027 81.92-116.053 95.573 23.893 20.48 40.96 51.2 40.96 88.747 0 47.787-27.307 88.747-68.267 105.813v365.227l-3.413 13.653c-13.653 27.307-37.547 44.373-61.44 44.373h-238.933v40.96c0 44.373-58.027 40.96-58.027 0v-44.373h-235.52c-30.72 0-54.613-23.893-54.613-54.613v-706.56c0-30.72 23.893-54.613 54.613-54.613h3.413l10.24-3.413c116.053-37.547 245.76-40.96 361.813-3.413 58.027-17.067 116.053-27.307 177.493-27.307s122.88 10.24 180.907 30.72l10.24 3.413v95.573c-3.413 3.413-3.413 6.827-3.413 10.24zM730.453 372.053c3.413 0 10.24 0 13.653-3.413 3.413 0 3.413 0 6.827-3.413 6.827-3.413 10.24-3.413 17.067-6.827 20.48-13.653 34.133-37.547 34.133-64.853s-13.653-51.2-34.133-64.853c-6.827-3.413-10.24-6.827-17.067-6.827-3.413 0-3.413 0-6.827-3.413-3.413 0-10.24-3.413-13.653-3.413h-17.067c-37.547 6.827-68.267 37.547-68.267 78.507s30.72 71.68 68.267 78.507h17.067zM730.453 197.973v0zM436.907 887.466c10.24 0 17.067-6.827 17.067-17.067s-6.827-17.067-17.067-17.067-17.067 6.827-17.067 17.067 6.827 17.067 17.067 17.067zM177.493 98.986l-3.413-40.96h-3.413v706.56h95.573c0-3.413-3.413-6.827-3.413-10.24 0-17.067 13.653-30.72 30.72-30.72h283.307c17.067 0 30.72 13.653 30.72 30.72 0 3.413 0 6.827-3.413 10.24h102.4c3.413 0 6.827-3.413 10.24-6.827v-354.987c-58.027-6.827-102.4-54.613-102.4-112.64 0-34.133 17.067-64.853 40.96-85.333-44.373-10.24-85.333-30.72-105.813-61.44-20.48 30.72-61.44 51.2-105.813 61.44 27.307 20.48 44.373 54.613 44.373 92.16 0 64.853-54.613 119.467-119.467 119.467s-119.467-54.613-119.467-119.467c0-37.547 17.067-71.68 44.373-92.16-61.44-13.653-112.64-47.787-116.053-105.813zM368.64 215.040c-47.787 0-85.333 37.547-85.333 85.333s37.547 85.333 85.333 85.333 85.333-37.547 85.333-85.333-40.96-85.333-85.333-85.333zM880.64 75.093v-44.373c-47.787-17.067-102.4-23.893-153.6-23.893-44.373 0-88.747 3.413-133.12 17.067-10.24 3.413-23.893 6.827-34.133 10.24-3.413 0-3.413 0-6.827 3.413l-13.653-6.827c-3.413 0-3.413 0-6.827-3.413-10.24-3.413-23.893-6.827-34.133-10.24-85.333-20.48-174.080-20.48-259.413 0-10.24 3.413-20.48 3.413-30.72 6.827v30.72l3.413 37.547c3.413 54.613 81.92 81.92 157.013 81.92s153.6-27.307 160.427-81.92v-13.653h34.133v13.653c6.827 54.613 81.92 78.507 150.187 81.92h34.133c6.827 0 10.24 0 17.067-3.413 58.027-10.24 109.227-34.133 112.64-75.093 3.413-17.067 3.413-17.067 3.413-20.48zM897.707 98.986s0 10.24 0 0z" />
<glyph unicode="&#xe62e;" d="M218.453 58.026v795.307h539.307v-232.107h54.613v225.28c0 34.133-23.893 58.027-54.613 58.027h-539.307c-30.72 0-54.613-23.893-54.613-54.613v-791.893c0-34.133 23.893-58.027 54.613-58.027h252.587v54.613h-252.587v3.413zM733.867 682.666v58.027h-337.92v-58.027h337.92zM395.947 457.386h75.093v61.44h-75.093v-61.44zM395.947 235.52h75.093v61.44h-75.093v-61.44zM505.173 587.093v-573.44h354.987v573.44h-354.987zM590.507 293.546c-3.413-10.24-10.24-20.48-23.893-20.48-10.24 0-20.48 6.827-23.893 20.48v3.413c0 13.653 10.24 23.893 23.893 23.893s23.893-10.24 23.893-23.893c3.413 0 0 0 0-3.413zM822.613 351.573h-276.48v191.147h276.48v-191.147zM365.227 764.586h-105.813v-109.227h105.813v109.227zM327.68 692.906h-34.133v34.133h34.133v-34.133zM259.413 426.666h105.813v109.227h-105.813v-109.227zM293.547 498.346h34.133v-34.133h-34.133v34.133zM365.227 317.44h-105.813v-109.227h105.813v109.227zM331.093 245.76h-34.133v34.133h34.133v-34.133z" />
<glyph unicode="&#xe62f;" d="M180.907 730.453c44.373 0 78.507 37.547 78.507 78.507 0 44.373-37.547 78.507-78.507 78.507-44.373 0-78.507-37.547-78.507-78.507 0-44.373 34.133-78.507 78.507-78.507zM634.88 447.146c-6.827 47.787-51.2 78.507-102.4 88.747 20.48 17.067 34.133 44.373 34.133 71.68 0 51.2-40.96 92.16-92.16 92.16s-92.16-40.96-92.16-92.16c0-30.72 13.653-54.613 34.133-71.68-37.547-6.827-71.68-23.893-88.747-51.2-20.48 27.307-54.613 44.373-92.16 51.2 20.48 17.067 34.133 44.373 34.133 71.68 0 51.2-40.96 92.16-92.16 92.16s-92.16-40.96-92.16-92.16c0-30.72 13.653-54.613 34.133-71.68-51.2-13.653-95.573-40.96-98.987-88.747l-6.827-81.92 13.653-3.413c95.573-30.72 201.387-34.133 300.373-3.413 47.787-13.653 95.573-23.893 146.773-23.893s102.4 6.827 153.6 23.893l10.24 3.413-3.413 85.333zM416.427 610.986c0 34.133 27.307 58.027 58.027 58.027 34.133 0 58.027-27.307 58.027-58.027 0-34.133-27.307-58.027-58.027-58.027-34.133-3.413-58.027 23.893-58.027 58.027zM116.053 610.986c0 34.133 27.307 58.027 58.027 58.027 34.133 0 58.027-27.307 58.027-58.027 0-34.133-27.307-58.027-58.027-58.027-30.72-3.413-58.027 23.893-58.027 58.027zM600.747 389.12c-88.747-27.307-184.32-23.893-269.653 3.413l-6.827 3.413-6.827-3.413c-85.333-27.307-180.907-30.72-269.653-3.413l3.413 54.613c3.413 40.96 64.853 64.853 122.88 64.853 61.44 0 126.293-23.893 129.707-64.853l3.413-13.653h34.133v17.067c3.413 44.373 64.853 64.853 126.293 64.853s122.88-23.893 129.707-64.853v-58.027zM153.6 730.453s3.413 3.413 3.413 13.653v6.827c13.653 13.653 249.173 177.493 249.173 177.493l17.067-20.48s-174.080-109.227-215.040-143.36c-13.653-23.893-17.067-34.133-27.307-34.133h436.907v157.013h-518.827v-351.573l-88.747 3.413c-20.48 40.96-27.307 109.227-78.507 136.533-71.68 37.547-126.293 23.893-133.12 23.893-64.853-3.413-95.573-75.093-95.573-133.12l10.24-235.52c0-13.653 10.24-20.48 27.307-20.48h13.653v-293.547c0-13.653 3.413-23.893 10.24-23.893h71.68c3.413 0 10.24 10.24 10.24 23.893l13.653 238.933 3.413-238.933c0-13.653 3.413-23.893 10.24-23.893h75.093c3.413 0 10.24 10.24 10.24 23.893l3.413 170.667 3.413 133.12h10.24v218.453l10.24-71.68 126.293-3.413c23.893-3.413 37.547 6.827 40.96 20.48z" />
<glyph unicode="&#xe630;" d="M235.52-6.827v30.72l3.413 30.72v696.32h95.573c0-3.413-3.413-6.827-3.413-10.24 0-17.067 13.653-30.72 30.72-30.72h283.307c17.067 0 30.72 13.653 30.72 30.72 0 3.413 0 6.827-3.413 10.24h102.4c3.413 0 6.827-3.413 10.24-6.827v-361.813c6.827 0 10.24 0 17.067-3.413 3.413 0 10.24-3.413 13.653-3.413s3.413 0 6.827-3.413c6.827-3.413 10.24-6.827 17.067-10.24v385.707l-3.413 13.653c-13.653 27.307-34.133 44.373-61.44 44.373h-238.933v44.373c0 44.373-58.027 40.96-58.027 0v-44.373h-235.52c-30.72 0-54.613-23.893-54.613-54.613v-706.56c0-30.72 23.893-54.613 54.613-54.613h20.48c-6.827 3.413-10.24 3.413-17.067 3.413h-10.24zM508.587 866.986c10.24 0 17.067-6.827 17.067-17.067s-6.827-17.067-17.067-17.067-17.067 6.827-17.067 17.067 6.827 17.067 17.067 17.067zM706.56 617.813h-430.080v-54.613h430.080v54.613zM706.56 481.28h-430.080v-54.613h430.080v54.613zM945.493 81.92c-6.827 44.373-54.613 71.68-109.227 85.333-6.827 0-10.24 3.413-17.067 3.413h-44.373c-75.093 0-160.427-27.307-167.253-88.747v-13.653h-17.067v13.653c-6.827 54.613-75.093 81.92-143.36 88.747h-54.613c-68.267-6.827-133.12-34.133-136.533-88.747l-3.413-37.547v-34.133c3.413 0 3.413 0 6.827-3.413 23.893-6.827 47.787-13.653 75.093-17.067 58.027-10.24 119.467-10.24 177.493 0 23.893 3.413 47.787 10.24 71.68 17.067 3.413 0 10.24 3.413 13.653 3.413h6.827c3.413 0 10.24-3.413 13.653-3.413 23.893-6.827 47.787-13.653 71.68-17.067 85.333-13.653 174.080-6.827 256 20.48v71.68zM331.093 273.066c0-51.2 40.96-92.16 92.16-92.16s92.16 40.96 92.16 92.16-40.96 92.16-92.16 92.16c-51.2 0-92.16-40.96-92.16-92.16zM686.080 273.066c0-51.2 40.96-92.16 92.16-92.16s92.16 40.96 92.16 92.16-40.96 92.16-92.16 92.16-92.16-40.96-92.16-92.16z" />
<glyph unicode="&#xe631;" d="M392.533 720.213c47.787 0 85.333 37.547 85.333 85.333s-37.547 85.333-85.333 85.333-85.333-37.547-85.333-85.333 37.547-85.333 85.333-85.333zM535.893 167.253v-10.24h-256l13.653 98.987h211.627v37.547c0 27.307 20.48 58.027 51.2 58.027h112.64c-6.827 40.96-44.373 68.267-78.507 71.68-64.853 6.827-126.293 6.827-126.293 6.827l-6.827 95.573 13.653-85.333 167.253-17.067c40.96-3.413 44.373 44.373 0 51.2-54.613 10.24-81.92 13.653-119.467 23.893-6.827 51.2-37.547 136.533-51.2 157.013-17.067 20.48-34.133 34.133-78.507 34.133-51.2 0-78.507-17.067-78.507-40.96 0 0-13.653-211.627-3.413-290.133l-68.267 307.2c-3.413 20.48-27.307 34.133-47.787 30.72s-34.133-27.307-30.72-47.787l78.507-358.4c3.413-10.24 6.827-17.067 13.653-23.893l-34.133-242.347c0-10.24 6.827-20.48 17.067-23.893h3.413c10.24 0 17.067 6.827 20.48 17.067l13.653 102.4h262.827v-98.987c0-10.24 10.24-20.48 20.48-20.48s20.48 10.24 20.48 20.48v146.773h-20.48c-6.827-3.413-13.653 0-20.48 0zM600.747 163.84v-6.827c3.413-71.68 78.507-61.44 78.507-13.653v23.893h-78.507zM870.4 310.613h-293.547c-20.48 0-34.133-17.067-34.133-34.133v-37.547c0-17.067 13.653-34.133 34.133-34.133h293.547c20.48 0 34.133 17.067 34.133 34.133v37.547c0 20.48-17.067 34.133-34.133 34.133z" />
<glyph unicode="&#xe632;" d="M628.053 122.88v68.267h-559.787v-88.747l23.893-27.307h563.2c-17.067 13.653-27.307 27.307-27.307 47.787zM201.387 136.533h-75.093v27.307h75.093v-27.307zM314.027 136.533h-75.093v27.307h75.093v-27.307zM628.053 300.373h-392.533v331.093h576.853v-58.027c27.307-3.413 54.613-10.24 75.093-27.307v78.507c0 44.373-37.547 81.92-81.92 81.92h-573.44c-44.373 0-81.92-37.547-81.92-81.92v-399.36h474.453v75.093zM812.373 457.386v-68.267h27.307v34.133c0 10.24-3.413 20.48-10.24 27.307-6.827 3.413-13.653 6.827-17.067 6.827zM812.373 556.373h-10.24c-37.547 0-71.68-13.653-95.573-40.96-17.067-17.067-30.72-40.96-37.547-68.267-3.413-10.24-3.413-17.067-3.413-27.307v-30.72h81.92v40.96c0 6.827 3.413 13.653 6.827 20.48 3.413 3.413 3.413 6.827 6.827 6.827 3.413 3.413 6.827 3.413 6.827 6.827 10.24 6.827 20.48 10.24 30.72 10.24h10.24c6.827 0 13.653-3.413 20.48-6.827 3.413-3.413 6.827-3.413 6.827-6.827 3.413-3.413 3.413-6.827 6.827-6.827 3.413-6.827 6.827-13.653 6.827-20.48v-40.96h81.92v30.72c0 10.24 0 17.067-3.413 27.307-6.827 27.307-17.067 51.2-37.547 68.267l-6.827 6.827c-17.067 17.067-44.373 27.307-71.68 30.72zM921.6 372.053h-245.76c-20.48 0-34.133-17.067-34.133-34.133v-215.040c0-20.48 17.067-34.133 34.133-34.133h245.76c20.48 0 34.133 17.067 34.133 34.133v215.040c0 17.067-13.653 34.133-34.133 34.133zM761.173 153.6l10.24 37.547 10.24 51.2-10.24 10.24c-3.413 3.413-3.413 10.24-3.413 17.067v10.24c0 6.827 3.413 10.24 10.24 13.653 3.413 3.413 3.413 3.413 6.827 3.413 3.413 3.413 10.24 3.413 13.653 3.413s6.827 0 10.24-3.413c3.413 0 6.827-3.413 10.24-3.413 6.827-6.827 13.653-13.653 13.653-27.307 0-6.827 0-10.24-3.413-13.653l-10.24-10.24 6.827-20.48 10.24-34.133 6.827-30.72 3.413-10.24h-85.333z" />
<glyph unicode="&#xe633;" d="M610.987 385.706c-61.44 0-116.053 17.067-167.253 44.373h-191.147l-92.16 416.427c-6.827 27.307-34.133 44.373-61.44 37.547s-44.373-34.133-37.547-61.44l102.4-453.973c3.413-10.24 10.24-20.48 17.067-27.307l-44.373-310.613c-3.413-13.653 6.827-27.307 20.48-27.307h3.413c13.653 0 23.893 10.24 23.893 20.48l17.067 129.707h334.507v-126.293c0-13.653 10.24-23.893 23.893-23.893s23.893 10.24 23.893 23.893v310.613c13.653 10.24 23.893 23.893 23.893 44.373v6.827c6.827 0 3.413-3.413 3.413-3.413zM539.307 204.8h-327.68l17.067 126.293h310.613v-126.293zM607.573 679.253c-37.547 0-68.267-30.72-68.267-68.267s30.72-68.267 68.267-68.267 68.267 30.72 68.267 68.267-30.72 68.267-68.267 68.267zM597.333 669.013c3.413 3.413 6.827 3.413 6.827 3.413 3.413 0 6.827 0 6.827-3.413 3.413-3.413 3.413-6.827 3.413-10.24s0-6.827-3.413-6.827-3.413-3.413-6.827-3.413-6.827 0-6.827 3.413-3.413 6.827-3.413 6.827 3.413 6.827 3.413 10.24zM628.053 559.786h-40.96v3.413h10.24v51.2l-3.413 3.413h-6.827v10.24c10.24 0 20.48 3.413 30.72 6.827v-68.267h10.24v-6.827zM901.12 655.36c-10.24 10.24-23.893 20.48-37.547 30.72-6.827 6.827-13.653 10.24-20.48 17.067-30.72 23.893-64.853 47.787-105.813 64.853-34.133 17.067-75.093 27.307-112.64 30.72h-13.653c-105.813 0-201.387-64.853-262.827-116.053-44.373-37.547-71.68-71.68-71.68-71.68s13.653-17.067 40.96-44.373c20.48-20.48 47.787-44.373 81.92-68.267 6.827-6.827 17.067-10.24 27.307-17.067 20.48-13.653 47.787-27.307 71.68-37.547 13.653-3.413 23.893-10.24 37.547-13.653 23.893-6.827 47.787-10.24 75.093-10.24 37.547 0 71.68 6.827 102.4 20.48l3.413-3.413v3.413c27.307 10.24 54.613 23.893 78.507 37.547 10.24 6.827 17.067 10.24 27.307 17.067 34.133 23.893 61.44 47.787 81.92 68.267 27.307 23.893 40.96 44.373 40.96 44.373s-20.48 23.893-44.373 47.787zM696.32 518.826c-13.653-13.653-34.133-23.893-54.613-30.72-10.24-3.413-23.893-6.827-34.133-6.827-64.853 0-119.467 47.787-126.293 112.64 0 6.827-3.413 10.24-3.413 17.067 0 71.68 58.027 129.707 129.707 129.707 10.24 0 20.48-3.413 30.72-3.413 54.613-13.653 98.987-64.853 98.987-122.88 0-37.547-17.067-71.68-40.96-95.573z" />
<glyph unicode="&#xe634;" d="M614.4 385.706c-61.44 0-116.053 17.067-167.253 44.373h-191.147l-92.16 416.427c-6.827 27.307-34.133 44.373-61.44 37.547s-44.373-34.133-37.547-61.44l102.4-453.973c3.413-10.24 10.24-20.48 17.067-27.307l-44.373-310.613c-3.413-13.653 6.827-27.307 20.48-27.307h3.413c13.653 0 23.893 10.24 23.893 20.48l17.067 129.707h334.507v-126.293c0-13.653 10.24-23.893 23.893-23.893s23.893 10.24 23.893 23.893v310.613c13.653 10.24 23.893 23.893 23.893 44.373v6.827c6.827 0 6.827-3.413 3.413-3.413zM546.133 204.8h-327.68l17.067 126.293h310.613v-126.293zM610.987 679.253c-37.547 0-68.267-30.72-68.267-68.267s30.72-68.267 68.267-68.267 68.267 30.72 68.267 68.267-27.307 68.267-68.267 68.267zM904.533 655.36c-10.24 10.24-23.893 20.48-37.547 30.72-6.827 6.827-13.653 10.24-20.48 17.067-30.72 23.893-64.853 47.787-105.813 64.853-34.133 17.067-75.093 27.307-112.64 30.72h-13.653c-105.813 0-201.387-64.853-262.827-116.053-44.373-37.547-71.68-71.68-71.68-71.68s13.653-17.067 40.96-44.373c20.48-20.48 47.787-44.373 81.92-68.267 6.827-6.827 17.067-10.24 27.307-17.067 20.48-13.653 47.787-27.307 71.68-37.547 13.653-3.413 23.893-10.24 37.547-13.653 23.893-6.827 47.787-10.24 75.093-10.24 37.547 0 71.68 6.827 102.4 20.48l3.413-3.413v3.413c27.307 10.24 54.613 23.893 78.507 37.547 10.24 6.827 17.067 10.24 27.307 17.067 34.133 23.893 61.44 47.787 81.92 68.267 27.307 23.893 40.96 44.373 40.96 44.373s-17.067 23.893-44.373 47.787zM699.733 518.826c-13.653-13.653-34.133-23.893-54.613-30.72-10.24-3.413-23.893-6.827-34.133-6.827-64.853 0-119.467 47.787-126.293 112.64 0 6.827-3.413 10.24-3.413 17.067 0 71.68 58.027 129.707 129.707 129.707 10.24 0 20.48-3.413 30.72-3.413 54.613-13.653 98.987-64.853 98.987-122.88 0-37.547-13.653-71.68-40.96-95.573z" />
<glyph unicode="&#xe635;" d="M774.827 389.12c-3.413 0-10.24 0-13.653-3.413h-17.067v-10.24h54.613v20.48c-6.827-3.413-10.24-3.413-17.067-6.827h-6.827zM201.387 754.346h95.573c0-3.413-3.413-6.827-3.413-10.24 0-17.067 13.653-30.72 30.72-30.72h283.307c17.067 0 30.72 13.653 30.72 30.72 0 3.413 0 6.827-3.413 10.24h102.4c3.413 0 6.827-3.413 10.24-6.827v-153.6h17.067c3.413 0 10.24 0 13.653-3.413 3.413 0 3.413 0 6.827-3.413 6.827-3.413 10.24-3.413 17.067-6.827v170.667l-3.413 13.653c-13.653 27.307-37.547 44.373-61.44 44.373h-238.933v44.373c0 44.373-58.027 40.96-58.027 0v-44.373h-235.52c-30.72 0-54.613-23.893-54.613-54.613v-706.56c0-30.72 23.893-54.613 54.613-54.613h303.787v54.613h-303.787l-3.413 706.56zM467.627 873.813c10.24 0 17.067-6.827 17.067-17.067s-6.827-17.067-17.067-17.067-17.067 6.827-17.067 17.067 6.827 17.067 17.067 17.067zM665.6 624.64h-426.667v-54.613h430.080v54.613zM238.933 433.493h426.667c-10.24 17.067-17.067 34.133-17.067 54.613h-409.6v-54.613zM559.787 351.573h-324.267v-54.613h276.48c10.24 20.48 27.307 37.547 47.787 54.613zM238.933 157.013h266.24v54.613h-266.24v-54.613zM781.653 573.44c-3.413 0-3.413 0-6.827 3.413-3.413 0-10.24 3.413-13.653 3.413h-17.067c-44.373-3.413-78.507-40.96-78.507-85.333v-3.413c0-6.827 0-10.24 3.413-17.067 6.827-37.547 37.547-61.44 75.093-68.267h17.067c3.413 0 10.24 0 13.653 3.413 3.413 0 3.413 0 6.827 3.413 6.827 3.413 10.24 3.413 17.067 6.827 23.893 17.067 40.96 40.96 40.96 75.093s-17.067 58.027-40.96 75.093c-6.827-3.413-13.653 0-17.067 3.413zM914.773 651.946c-17.067 0-34.133-10.24-34.133-27.307v-262.827h-232.107c-20.48 0-37.547-3.413-54.613-10.24-27.307-10.24-51.2-30.72-64.853-54.613-6.827-13.653-10.24-27.307-10.24-44.373v-245.76h68.267v238.933h37.547v-242.347h221.867v238.933h6.827c78.507 3.413 92.16 61.44 92.16 105.813v276.48c3.413 17.067-13.653 27.307-30.72 27.307z" />
<glyph unicode="&#xe636;" d="M744.107 30.72l-13.653 13.653c-13.653-17.067-23.893-23.893-27.307-27.307s-6.827-3.413-6.827-6.827h68.267l-3.413 3.413c-3.413 0-10.24 6.827-17.067 17.067zM846.507 98.986s-3.413 0 0 0l-30.72 30.72-20.48-20.48c-3.413-3.413-6.827-6.827-6.827-10.24l-44.373-44.373 30.72-30.72c3.413-3.413 3.413-3.413 6.827-3.413s3.413 0 6.827-3.413h6.827s3.413 0 3.413 3.413c0 0 3.413 0 3.413 3.413 3.413 0 3.413 3.413 6.827 3.413 0 0 3.413 0 3.413 3.413l10.24 10.24h3.413l6.827 6.827v3.413c10.24 10.24 17.067 20.48 20.48 27.307 3.413 10.24 3.413 13.653 0 20.48-6.827-3.413-6.827 0-6.827 0zM621.227 170.666s10.24-10.24 17.067-20.48l3.413 3.413 30.72 34.133 40.96 40.96c-10.24 10.24-17.067 17.067-20.48 17.067-3.413 3.413-3.413 3.413-6.827 3.413h-13.653c-3.413 0-6.827-3.413-10.24-3.413l-34.133 34.133c10.24 27.307 3.413 61.44-17.067 81.92-6.827 6.827-10.24 10.24-17.067 13.653 0 0-3.413 0-3.413 3.413-6.827 3.413-13.653 3.413-20.48 6.827h-27.307c-6.827 0-13.653-3.413-20.48-6.827 20.48-20.48 37.547-40.96 40.96-40.96 10.24-10.24 13.653-17.067 0-34.133l-6.827-6.827c-3.413-3.413-6.827-6.827-10.24-6.827h-6.827c-3.413 0-3.413 0-6.827 3.413h-3.413c-3.413 0-3.413 3.413-6.827 6.827l-40.96 40.96c-13.653-27.307-6.827-61.44 17.067-85.333 3.413-3.413 10.24-10.24 17.067-10.24 0 0 3.413 0 3.413-3.413 6.827-3.413 10.24-3.413 17.067-6.827h23.893c6.827 0 13.653 3.413 20.48 3.413l34.133-34.133c-3.413-20.48 0-27.307 6.827-34.133zM942.080 358.4c-3.413 0-3.413 3.413 0 0l-6.827 6.827h-10.24l-3.413-3.413c0-3.413-3.413-3.413-3.413-6.827 0 0 0-3.413-3.413-3.413 0-3.413-3.413-3.413-3.413-6.827l-13.653-13.653c-6.827-6.827-34.133-34.133-68.267-71.68l-10.24 10.24s-3.413 0-3.413 3.413l-23.893-23.893c-3.413 0-6.827 3.413-6.827 3.413h-13.653c-3.413 0-3.413-3.413-6.827-3.413l-20.48-20.48c-3.413-3.413-6.827-6.827-10.24-13.653-10.24-13.653-23.893-27.307-37.547-40.96s-23.893-27.307-37.547-37.547c-3.413-3.413-6.827-6.827-10.24-13.653-13.653-13.653-20.48-23.893-23.893-23.893-10.24-10.24-13.653-20.48 17.067-51.2l17.067-17.067s3.413 0 3.413-3.413c3.413 0 3.413-3.413 6.827-3.413h3.413s3.413 0 3.413-3.413h10.24c3.413 0 3.413 0 6.827 3.413 3.413 0 3.413 3.413 6.827 3.413l27.307 27.307c3.413 3.413 6.827 6.827 10.24 13.653 10.24 10.24 20.48 23.893 34.133 34.133l40.96 40.96v0c3.413 3.413 6.827 6.827 10.24 13.653l20.48 20.48c6.827 6.827 10.24 13.653 3.413 27.307 0 3.413 3.413 3.413 6.827 6.827 6.827 6.827 13.653 17.067 17.067 17.067 0 0-6.827 10.24-17.067 17.067l68.267 68.267c6.827 13.653 40.96 27.307 20.48 44.373zM624.64 34.133s-3.413 6.827-6.827 6.827c-27.307 27.307-37.547 47.787-17.067 75.093 3.413 3.413 10.24 13.653 23.893 27.307-3.413 6.827-10.24 10.24-13.653 17.067l-3.413 3.413c-10.24 13.653-13.653 23.893-10.24 37.547l-17.067 17.067c-6.827-3.413-17.067-3.413-23.893-3.413-23.893 0-47.787 10.24-64.853 27.307-27.307 27.307-34.133 68.267-20.48 105.813l10.24 23.893 61.44-61.44s3.413 0 6.827 3.413 3.413 3.413 3.413 6.827c0 0-3.413 3.413-3.413 6.827l-58.027 58.027 20.48 10.24c13.653 6.827 27.307 10.24 40.96 10.24 23.893 0 47.787-10.24 64.853-27.307 23.893-23.893 34.133-58.027 23.893-88.747l17.067-17.067c3.413 3.413 10.24 3.413 13.653 3.413 10.24 0 20.48-6.827 27.307-10.24 0 0 10.24-10.24 20.48-17.067 10.24 13.653 20.48 20.48 20.48 20.48 6.827 6.827 13.653 13.653 27.307 13.653h6.827c3.413 3.413 6.827 10.24 10.24 10.24v593.92h-559.787v-880.64h426.667c-6.827 3.413-17.067 10.24-27.307 20.48 3.413 3.413 0 3.413 0 6.827zM314.027 788.48h399.36v-276.48h-399.36v276.48zM348.16 399.36c-17.067 0-34.133 13.653-34.133 34.133s13.653 34.133 34.133 34.133 34.133-13.653 34.133-34.133-17.067-34.133-34.133-34.133z" />
<glyph unicode="&#xe637;" d="M925.013 904.533h-832.853c-27.307 0-51.2-23.893-51.2-51.2v-815.787c0-27.307 23.893-51.2 51.2-51.2h832.853c27.307 0 51.2 23.893 51.2 51.2v815.787c0 27.307-20.48 51.2-51.2 51.2zM942.080 37.546c0-10.24-6.827-17.067-17.067-17.067h-832.853c-10.24 0-17.067 6.827-17.067 17.067v815.787c0 10.24 6.827 17.067 17.067 17.067h832.853c10.24 0 17.067-6.827 17.067-17.067v-815.787zM153.6 61.44h116.053v484.693h-116.053v-484.693zM351.573 61.44h116.053v703.147h-116.053v-703.147zM662.187 546.133h-116.053v-116.053h116.053v116.053zM740.693 430.080h116.053v334.507h-116.053v-334.507zM546.133 78.506h314.027v317.44h-314.027v-317.44zM689.493 368.64c0 6.827 6.827 13.653 13.653 13.653s13.653-6.827 13.653-13.653v-64.853c0-6.827-6.827-13.653-13.653-13.653s-13.653 6.827-13.653 13.653v64.853zM662.187 256c6.827 13.653 20.48 23.893 37.547 23.893s34.133-10.24 40.96-27.307c3.413-6.827 3.413-13.653 3.413-20.48s0-13.653-3.413-20.48c-6.827-17.067-23.893-27.307-40.96-27.307s-30.72 10.24-37.547 23.893c-3.413 6.827-6.827 13.653-6.827 23.893s3.413 17.067 6.827 23.893z" />
<glyph unicode="&#xe638;" d="M187.733 866.986h-78.507v-78.507h78.507v78.507zM109.227 20.48h78.507v78.507h-78.507v-78.507zM928.427 866.986h-78.507v-78.507h78.507v78.507zM621.227 279.893h78.507v78.507h-78.507v-78.507zM641.707 791.893v-211.627h-160.427v-34.133h160.427v-153.6h34.133v153.6h211.627c10.24 0 17.067-6.827 17.067-17.067v-399.36h34.133v402.773c0 27.307-23.893 51.2-51.2 51.2h-211.627v208.213c0 27.307-23.893 51.2-51.2 51.2h-402.773v-34.133h402.773c10.24 0 17.067-6.827 17.067-17.067zM419.84 85.333v211.627h167.253v34.133h-167.253v163.84h-34.133v-163.84h-211.627c-10.24 0-17.067 6.827-17.067 17.067v409.6h-34.133v-409.6c0-27.307 23.893-51.2 51.2-51.2h211.627v-211.627c0-27.307 23.893-51.2 51.2-51.2h409.6v34.133h-409.6c-10.24 0-17.067 6.827-17.067 17.067zM447.147 525.653v78.507h-78.507v-78.507h78.507zM880.64 98.986v-78.507h78.507v78.507h-78.507z" />
<glyph unicode="&#xe639;" d="M453.973 436.906h-242.347l-71.68 320.853c-3.413 20.48-23.893 34.133-47.787 30.72-20.48-3.413-34.133-23.893-30.72-47.787l78.507-351.573c3.413-10.24 6.827-17.067 13.653-20.48l-34.133-238.933c0-10.24 6.827-20.48 17.067-20.48h3.413c10.24 0 17.067 6.827 20.48 17.067l13.653 98.987h259.413v-95.573c0-10.24 10.24-20.48 20.48-20.48s20.48 10.24 20.48 20.48v238.933c10.24 6.827 20.48 17.067 20.48 34.133-3.413 17.067-20.48 34.133-40.96 34.133zM433.493 262.826h-252.587l13.653 95.573h238.933v-95.573zM921.6 436.906h-242.347l-71.68 320.853c-3.413 20.48-23.893 34.133-47.787 30.72-20.48-3.413-34.133-23.893-30.72-47.787l78.507-351.573c3.413-10.24 6.827-17.067 13.653-20.48l-34.133-238.933c0-10.24 6.827-20.48 17.067-20.48h3.413c10.24 0 17.067 6.827 20.48 17.067l13.653 98.987h259.413v-95.573c0-10.24 10.24-20.48 20.48-20.48s20.48 10.24 20.48 20.48v238.933c10.24 6.827 20.48 17.067 20.48 34.133-3.413 17.067-20.48 34.133-40.96 34.133zM901.12 262.826h-252.587l13.653 95.573h238.933v-95.573z" />
<glyph unicode="&#xe63a;" d="M61.44 890.88v-81.92l348.16-300.373 98.987-358.4 119.467-153.6v512l310.613 296.96v85.333z" />
<glyph unicode="&#xe63b;" d="M945.493 849.92c-3.413 3.413-13.653 10.24-23.893 10.24h-826.027c-10.24 0-17.067-3.413-23.893-10.24-3.413-3.413-10.24-13.653-10.24-23.893v-720.213c0-10.24 3.413-17.067 10.24-23.893 3.413-3.413 13.653-10.24 23.893-10.24h570.027l-10.24 37.547-20.48 6.827-40.96-34.133-10.24-6.827-61.44 40.96 3.413 13.653v3.413h-163.84v426.667h307.2v3.413l3.413 13.653h75.093l3.413-13.653v-3.413h136.533v-47.787l10.24-6.827-3.413-10.24-3.413-13.653v-58.027l47.787 3.413h13.653l3.413-13.653v-3.413 419.84c0 10.24 0 17.067-10.24 20.48zM314.027 139.946h-187.733v419.84h187.733v-419.84zM901.12 600.746h-771.413v197.973h771.413v-197.973zM890.88 406.186h-10.24l-20.48 34.133 20.48 61.44-34.133 27.307-47.787-44.373-40.96 10.24-17.067 64.853h-47.787l-17.067-64.853-44.373-6.827-44.373 37.547-40.96-34.133 23.893-58.027-23.893-23.893-68.267 3.413-13.653-40.96 58.027-34.133-3.413-40.96-54.613-34.133 17.067-47.787 61.44 6.827 20.48-34.133-17.067-47.787-3.413-10.24 40.96-27.307 47.787 37.547h3.413l37.547-13.653 17.067-61.44h44.373l17.067 61.44 47.787 10.24 40.96-37.547 37.547 27.307-3.413 13.653-17.067 44.373 27.307 30.72h61.44l13.653 40.96-54.613 34.133v40.96l54.613 30.72-17.067 44.373h-51.2zM713.387 215.040c-54.613 0-98.987 44.373-98.987 98.987s44.373 98.987 98.987 98.987c54.613 0 98.987-44.373 98.987-98.987s-44.373-98.987-98.987-98.987zM921.6 303.786l37.547-23.893v68.267l-37.547-20.48v-23.893zM890.88 201.386v-58.027l3.413-6.827 3.413-13.653-10.24-6.827-37.547-27.307-10.24-6.827-10.24 10.24-37.547 30.72-27.307-6.827-10.24-37.547h174.080c10.24 0 17.067 3.413 23.893 10.24 3.413 3.413 10.24 13.653 10.24 23.893v92.16l-3.413-6.827h-68.267z" />
<glyph unicode="&#xe63c;" d="M532.48 512c-3.413 0-10.24 3.413-13.653 3.413s-6.827 3.413-13.653 3.413-10.24 3.413-13.653 3.413c-3.413 3.413-3.413 3.413-3.413 6.827s0 3.413 3.413 6.827 3.413 3.413 6.827 3.413 3.413 0 6.827 3.413h6.827c6.827 0 13.653 0 20.48-3.413s13.653-6.827 17.067-10.24h3.413v27.307c-6.827 3.413-13.653 3.413-20.48 6.827-6.827 0-17.067 3.413-23.893 3.413-17.067 0-27.307-3.413-37.547-10.24s-13.653-17.067-13.653-27.307c0-6.827 3.413-17.067 6.827-20.48 3.413-6.827 10.24-10.24 20.48-13.653 3.413 0 10.24-3.413 13.653-3.413s10.24-3.413 13.653-3.413c3.413 0 6.827-3.413 10.24-3.413 3.413-3.413 3.413-3.413 3.413-6.827s0-3.413-3.413-6.827c0 0-3.413-3.413-6.827-3.413h-13.653c-6.827 0-13.653 0-23.893 3.413l-20.48 10.24h-3.413v-30.72c6.827-3.413 13.653-3.413 20.48-6.827s17.067-3.413 27.307-3.413c17.067 0 30.72 3.413 40.96 10.24s13.653 17.067 13.653 30.72c0 6.827-3.413 13.653-6.827 20.48 0 3.413-6.827 6.827-17.067 10.24zM713.387 129.706h-409.6v614.4h409.6v-34.133c27.307-3.413 51.2-10.24 75.093-20.48v102.4c0 44.373-34.133 78.507-78.507 78.507h-399.36c-44.373 0-78.507-34.133-78.507-78.507v-709.973c0-44.373 34.133-78.507 78.507-78.507h399.36c44.373 0 78.507 34.133 78.507 78.507v225.28c-23.893-6.827-47.787-13.653-75.093-20.48v-157.013zM645.12 501.76l-27.307 61.44h-37.547v-122.88h30.72v81.92l23.893-51.2h20.48l23.893 51.2v-81.92h30.72v122.88h-37.547l-27.307-61.44zM808.96 512c-3.413 0-10.24 3.413-13.653 3.413s-6.827 3.413-13.653 3.413-10.24 3.413-13.653 3.413c-3.413 3.413-3.413 3.413-3.413 6.827s0 3.413 3.413 6.827c0 0 3.413 3.413 6.827 3.413s3.413 0 6.827 3.413h6.827c6.827 0 13.653 0 20.48-3.413s13.653-6.827 17.067-10.24h3.413v27.307c-6.827 3.413-13.653 3.413-20.48 6.827-6.827 0-17.067 3.413-23.893 3.413-17.067 0-27.307-3.413-37.547-10.24s-13.653-17.067-13.653-27.307c0-6.827 3.413-17.067 6.827-20.48 3.413-6.827 10.24-10.24 20.48-13.653 3.413 0 10.24-3.413 13.653-3.413s10.24-3.413 13.653-3.413c3.413 0 6.827-3.413 10.24-3.413 3.413-3.413 3.413-3.413 3.413-6.827s0-3.413-3.413-6.827c0 0-3.413-3.413-6.827-3.413h-13.653c-6.827 0-13.653 0-23.893 3.413l-20.48 10.24h-3.413v-30.72c6.827-3.413 13.653-3.413 20.48-6.827s17.067-3.413 27.307-3.413c17.067 0 30.72 3.413 40.96 10.24s13.653 17.067 13.653 30.72c0 6.827-3.413 13.653-6.827 20.48s-6.827 6.827-17.067 10.24zM785.067 672.426c-23.893 10.24-47.787 17.067-75.093 20.48-23.893 3.413-51.2 6.827-75.093 6.827-163.84 0-293.547-88.747-293.547-201.387 0-81.92 64.853-150.187 170.667-180.907l-13.653-61.44c-3.413-10.24 3.413-23.893 13.653-30.72 3.413-3.413 10.24-3.413 13.653-3.413 6.827 0 13.653 3.413 17.067 6.827l78.507 71.68h17.067c23.893 0 47.787 3.413 71.68 6.827 27.307 3.413 51.2 10.24 75.093 20.48 20.48 6.827 40.96 17.067 61.44 30.72 58.027 37.547 88.747 88.747 88.747 146.773-3.413 71.68-64.853 133.12-150.187 167.253zM785.067 385.706c-20.48-10.24-47.787-20.48-75.093-23.893-23.893-3.413-47.787-6.827-71.68-6.827h-30.72c-6.827 0-13.653-3.413-17.067-6.827l-20.48-20.48c3.413 6.827 0 17.067-3.413 23.893-6.827 6.827-13.653 10.24-20.48 10.24-88.747 23.893-146.773 75.093-146.773 136.533 0 81.92 105.813 146.773 238.933 146.773 27.307 0 51.2-3.413 75.093-6.827 27.307-6.827 51.2-13.653 75.093-23.893 54.613-27.307 92.16-68.267 92.16-109.227 0-51.2-37.547-92.16-95.573-119.467z" />
<glyph unicode="&#xe63d;" d="M259.413 467.626c0 6.827 3.413 13.653 6.827 17.067l34.133 27.307h-187.733v146.773h215.040v-129.707l40.96 34.133v150.187h-300.373v-471.040h300.373v122.88l-98.987 81.92c-10.24 6.827-10.24 13.653-10.24 20.48zM126.293 453.973c-10.24 0-17.067 6.827-17.067 17.067s6.827 17.067 17.067 17.067 17.067-6.827 17.067-17.067c3.413-10.24-6.827-17.067-17.067-17.067zM655.36 713.386v-146.773l40.96-34.133v126.293h215.040v-146.773h-187.733l34.133-27.307c3.413-3.413 6.827-10.24 6.827-17.067s-3.413-13.653-6.827-17.067l-102.4-85.333v-122.88h300.373v471.040h-300.373zM894.293 453.973c-10.24 0-17.067 6.827-17.067 17.067s6.827 17.067 17.067 17.067 17.067-6.827 17.067-17.067-6.827-17.067-17.067-17.067zM655.36 399.36l81.92 68.267-81.92 68.267-23.893 20.48v-30.72c0-10.24-6.827-17.067-17.067-17.067h-201.387c-10.24 0-17.067 6.827-17.067 17.067v30.72l-27.307-23.893-78.507-64.853 78.507-64.853 27.307-23.893v30.72c0 10.24 6.827 17.067 17.067 17.067h201.387c10.24 0 17.067-6.827 17.067-17.067v-30.72l23.893 20.48z" />
<glyph unicode="&#xe63e;" d="M440.32 887.466v-351.573l-88.747 3.413c-20.48 40.96-27.307 109.227-78.507 136.533-71.68 37.547-126.293 23.893-133.12 23.893-64.853-3.413-95.573-75.093-95.573-133.12l10.24-235.52c0-13.653 10.24-20.48 27.307-20.48h13.653v-293.547c0-13.653 3.413-23.893 10.24-23.893h71.68c3.413 0 10.24 10.24 10.24 23.893l13.653 238.933 3.413-238.933c0-13.653 3.413-23.893 10.24-23.893h75.093c3.413 0 10.24 10.24 10.24 23.893l3.413 170.667 3.413 133.12h10.24v218.453l10.24-71.68 126.293-3.413c20.48-3.413 34.133 6.827 40.96 17.067 3.413 3.413 3.413 6.827 3.413 13.653v10.24l249.173 174.080 17.067-20.48s-174.080-109.227-215.040-143.36c-13.653-23.893-17.067-34.133-27.307-34.133h436.907v406.187h-518.827zM180.907 730.453c44.373 0 78.507 37.547 78.507 78.507 0 44.373-37.547 78.507-78.507 78.507s-78.507-34.133-78.507-78.507c0-44.373 34.133-78.507 78.507-78.507zM593.92 365.226c0 40.96-34.133 75.093-75.093 75.093s-75.093-34.133-75.093-75.093 34.133-75.093 75.093-75.093 75.093 30.72 75.093 75.093zM894.293 365.226c0 40.96-34.133 75.093-75.093 75.093s-75.093-34.133-75.093-75.093 34.133-75.093 75.093-75.093 75.093 30.72 75.093 75.093zM672.427 201.386l-3.413-13.653v13.653c-13.653 109.227-283.307 109.227-290.133 0l-3.413-68.267c95.573-30.72 197.973-30.72 293.547 0 95.573-30.72 197.973-30.72 293.547 0v68.267c-17.067 105.813-283.307 105.813-290.133 0z" />
<glyph unicode="&#xe63f;" d="M215.040 573.44h105.813v-262.827h40.96v262.827h105.813v34.133h-252.587v-34.133zM747.52 525.653c-6.827 20.48-17.067 34.133-27.307 47.787s-27.307 23.893-44.373 30.72-37.547 10.24-58.027 10.24c-20.48 0-40.96-3.413-58.027-10.24s-30.72-17.067-44.373-30.72-20.48-30.72-27.307-51.2-10.24-40.96-10.24-64.853 3.413-47.787 10.24-64.853c6.827-20.48 17.067-34.133 27.307-47.787s27.307-23.893 44.373-30.72 37.547-10.24 58.027-10.24c20.48 0 40.96 3.413 58.027 10.24s30.72 17.067 44.373 30.72c10.24 13.653 20.48 30.72 27.307 47.787 6.827 20.48 10.24 40.96 10.24 64.853s-3.413 47.787-10.24 68.267zM689.493 368.64c-17.067-20.48-40.96-30.72-71.68-30.72s-54.613 10.24-71.68 30.72-27.307 51.2-27.307 88.747 10.24 68.267 27.307 88.747 40.96 30.72 71.68 30.72c30.72 0 54.613-10.24 71.68-30.72s27.307-51.2 27.307-88.747-10.24-64.853-27.307-88.747z" />
<glyph unicode="&#xe640;" d="M249.173 617.813c40.96 0 75.093 34.133 75.093 75.093s-34.133 75.093-75.093 75.093-75.093-34.133-75.093-75.093c0-44.373 34.133-75.093 75.093-75.093zM249.173 750.933c30.72 0 58.027-27.307 58.027-58.027s-27.307-58.027-58.027-58.027-58.027 27.307-58.027 58.027c0 30.72 27.307 58.027 58.027 58.027zM477.867 324.266c0 23.893-13.653 44.373-27.307 54.613 17.067 3.413 23.893 13.653 27.307 23.893 0 13.653-10.24 30.72-34.133 34.133-13.653 3.413-23.893 3.413-34.133 6.827-20.48 3.413-34.133 6.827-51.2 10.24-6.827 40.96-30.72 105.813-40.96 122.88-13.653 17.067-30.72 30.72-68.267 30.72-51.2 0-68.267-20.48-68.267-40.96-3.413-34.133-6.827-119.467-6.827-180.907l-44.373 194.56c-3.413 17.067-20.48 27.307-37.547 23.893s-27.307-20.48-23.893-37.547l61.44-283.307c0-6.827 6.827-13.653 10.24-17.067l-27.307-194.56c0-10.24 3.413-17.067 13.653-17.067h3.413c6.827 0 13.653 6.827 17.067 13.653l10.24 81.92h208.213v-81.92c0-10.24 6.827-17.067 17.067-17.067s17.067 6.827 17.067 17.067v194.56c3.413 0 3.413 3.413 6.827 6.827 0-17.067 0-34.133 3.413-51.2 0-10.24 3.413-23.893 3.413-37.547 3.413-34.133 23.893-47.787 40.96-47.787s37.547 13.653 37.547 37.547v10.24c-6.827 3.413-10.24 54.613-13.653 143.36zM365.227 177.493h-204.8l10.24 78.507h194.56v-78.507zM471.040 163.84c0-13.653-10.24-20.48-20.48-20.48s-23.893 10.24-23.893 34.133c0 13.653-3.413 27.307-3.413 37.547-3.413 27.307-3.413 44.373-3.413 75.093 0 6.827-3.413 13.653-6.827 20.48-6.827 6.827-17.067 10.24-27.307 10.24h-194.56c-10.24 20.48-6.827 139.947 0 245.76 0 13.653 20.48 23.893 51.2 23.893s44.373-10.24 54.613-23.893c10.24-13.653 34.133-81.92 40.96-119.467v-6.827h6.827c20.48-6.827 37.547-10.24 58.027-13.653 10.24-3.413 20.48-3.413 34.133-6.827s20.48-10.24 17.067-17.067c0-6.827-6.827-10.24-17.067-10.24l-126.293 13.653-10.24 61.44-17.067-3.413 6.827-81.92h6.827s47.787 0 98.987-3.413c27.307-3.413 54.613-23.893 54.613-58.027 6.827-133.12 6.827-143.36 6.827-146.773 13.653 0 13.653-3.413 13.653-10.24zM730.453 617.813c40.96 0 75.093 34.133 75.093 75.093s-34.133 75.093-75.093 75.093c-40.96 0-75.093-34.133-75.093-75.093 0-44.373 34.133-75.093 75.093-75.093zM730.453 750.933c30.72 0 58.027-27.307 58.027-58.027s-27.307-58.027-58.027-58.027c-30.72 0-58.027 27.307-58.027 58.027s27.307 58.027 58.027 58.027zM965.973 177.493c0 10.24-3.413 58.027-6.827 146.773 0 23.893-13.653 44.373-27.307 54.613 17.067 3.413 23.893 13.653 27.307 23.893 0 13.653-10.24 30.72-34.133 34.133-13.653 3.413-23.893 3.413-34.133 6.827-20.48 3.413-34.133 6.827-51.2 10.24-6.827 40.96-30.72 105.813-40.96 122.88-13.653 17.067-30.72 30.72-68.267 30.72-51.2 0-68.267-20.48-68.267-40.96-3.413-34.133-6.827-119.467-6.827-180.907l-44.373 194.56c-3.413 17.067-20.48 27.307-37.547 23.893s-27.307-20.48-23.893-37.547l61.44-283.307c0-6.827 6.827-13.653 10.24-17.067l-27.307-194.56c0-10.24 3.413-17.067 13.653-17.067h3.413c6.827 0 13.653 6.827 17.067 13.653l10.24 81.92h208.213v-81.92c0-10.24 6.827-17.067 17.067-17.067s17.067 6.827 17.067 17.067v194.56c3.413 0 3.413 3.413 6.827 6.827 0-17.067 0-34.133 3.413-51.2 0-10.24 3.413-23.893 3.413-37.547 3.413-34.133 23.893-47.787 40.96-47.787s37.547 13.653 37.547 37.547c-6.827 3.413-6.827 3.413-6.827 6.827zM846.507 177.493h-204.8l10.24 78.507h194.56v-78.507zM948.907 163.84c0-13.653-10.24-20.48-20.48-20.48s-23.893 10.24-23.893 34.133c0 13.653-3.413 27.307-3.413 37.547-3.413 27.307-3.413 44.373-3.413 75.093 0 6.827-3.413 13.653-6.827 20.48-6.827 6.827-17.067 10.24-27.307 10.24h-194.56c-10.24 20.48-6.827 139.947 0 245.76 0 13.653 20.48 23.893 51.2 23.893s44.373-10.24 54.613-23.893c10.24-13.653 34.133-81.92 40.96-119.467v-6.827h6.827c20.48-6.827 37.547-10.24 58.027-13.653 10.24-3.413 20.48-3.413 34.133-6.827s20.48-10.24 17.067-17.067c0-6.827-6.827-10.24-17.067-10.24l-126.293 13.653-10.24 61.44-17.067-3.413 6.827-81.92h6.827s47.787 0 98.987-3.413c27.307-3.413 54.613-23.893 54.613-58.027 6.827-133.12 6.827-143.36 6.827-146.773 13.653 0 13.653-3.413 13.653-10.24z" />
</font>
</defs>
</svg>
